%TF.GenerationSoftware,KiCad,Pcbnew,9.0.8*%
%TF.CreationDate,2026-04-30T20:11:58+05:00*%
%TF.ProjectId,rocketpcb,726f636b-6574-4706-9362-2e6b69636164,rev?*%
%TF.SameCoordinates,Original*%
%TF.FileFunction,Copper,L2,Bot*%
%TF.FilePolarity,Positive*%
%FSLAX46Y46*%
G04 Gerber Fmt 4.6, Leading zero omitted, Abs format (unit mm)*
G04 Created by KiCad (PCBNEW 9.0.8) date 2026-04-30 20:11:58*
%MOMM*%
%LPD*%
G01*
G04 APERTURE LIST*
G04 Aperture macros list*
%AMRoundRect*
0 Rectangle with rounded corners*
0 $1 Rounding radius*
0 $2 $3 $4 $5 $6 $7 $8 $9 X,Y pos of 4 corners*
0 Add a 4 corners polygon primitive as box body*
4,1,4,$2,$3,$4,$5,$6,$7,$8,$9,$2,$3,0*
0 Add four circle primitives for the rounded corners*
1,1,$1+$1,$2,$3*
1,1,$1+$1,$4,$5*
1,1,$1+$1,$6,$7*
1,1,$1+$1,$8,$9*
0 Add four rect primitives between the rounded corners*
20,1,$1+$1,$2,$3,$4,$5,0*
20,1,$1+$1,$4,$5,$6,$7,0*
20,1,$1+$1,$6,$7,$8,$9,0*
20,1,$1+$1,$8,$9,$2,$3,0*%
G04 Aperture macros list end*
%TA.AperFunction,ComponentPad*%
%ADD10R,1.700000X1.700000*%
%TD*%
%TA.AperFunction,ComponentPad*%
%ADD11C,1.700000*%
%TD*%
%TA.AperFunction,ComponentPad*%
%ADD12RoundRect,0.250000X1.550000X-0.650000X1.550000X0.650000X-1.550000X0.650000X-1.550000X-0.650000X0*%
%TD*%
%TA.AperFunction,ComponentPad*%
%ADD13O,3.600000X1.800000*%
%TD*%
%TA.AperFunction,ComponentPad*%
%ADD14RoundRect,0.250000X-0.550000X-0.550000X0.550000X-0.550000X0.550000X0.550000X-0.550000X0.550000X0*%
%TD*%
%TA.AperFunction,ComponentPad*%
%ADD15C,1.600000*%
%TD*%
%TA.AperFunction,ComponentPad*%
%ADD16C,2.000000*%
%TD*%
%TA.AperFunction,HeatsinkPad*%
%ADD17C,0.600000*%
%TD*%
%TA.AperFunction,ViaPad*%
%ADD18C,0.600000*%
%TD*%
%TA.AperFunction,Conductor*%
%ADD19C,0.200000*%
%TD*%
G04 APERTURE END LIST*
D10*
%TO.P,J4,1,Pin_1*%
%TO.N,GND*%
X72050000Y-81945000D03*
D11*
%TO.P,J4,2,Pin_2*%
%TO.N,SERVO5V*%
X72050000Y-84485000D03*
%TO.P,J4,3,Pin_3*%
%TO.N,SERVO_4*%
X72050000Y-87025000D03*
%TD*%
D12*
%TO.P,J5,1,Pin_1*%
%TO.N,SERVO5V*%
X107550000Y-45630000D03*
D13*
%TO.P,J5,2,Pin_2*%
%TO.N,GND*%
X107550000Y-40550000D03*
%TD*%
D10*
%TO.P,J7,1,Pin_1*%
%TO.N,+3V3*%
X107830000Y-63775000D03*
D11*
%TO.P,J7,2,Pin_2*%
%TO.N,GND*%
X107830000Y-66315000D03*
%TO.P,J7,3,Pin_3*%
%TO.N,RXd0{slash}IO3*%
X107830000Y-68855000D03*
%TO.P,J7,4,Pin_4*%
%TO.N,IO0*%
X107830000Y-71395000D03*
%TO.P,J7,5,Pin_5*%
%TO.N,EN*%
X107830000Y-73935000D03*
%TO.P,J7,6,Pin_6*%
%TO.N,TXD0{slash}IO1*%
X107830000Y-76475000D03*
%TD*%
D14*
%TO.P,C5,1*%
%TO.N,SERVO5V*%
X108024698Y-84425000D03*
D15*
%TO.P,C5,2*%
%TO.N,GND*%
X111524698Y-84425000D03*
%TD*%
D16*
%TO.P,SW1,1,1*%
%TO.N,GND*%
X76370000Y-81675000D03*
X82870000Y-81675000D03*
%TO.P,SW1,2,2*%
%TO.N,EN*%
X76370000Y-86175000D03*
X82870000Y-86175000D03*
%TD*%
%TO.P,SW2,1,1*%
%TO.N,GND*%
X76370000Y-90225000D03*
X82870000Y-90225000D03*
%TO.P,SW2,2,2*%
%TO.N,EN*%
X76370000Y-94725000D03*
X82870000Y-94725000D03*
%TD*%
D12*
%TO.P,J6,1,Pin_1*%
%TO.N,+5V*%
X107660000Y-57600000D03*
D13*
%TO.P,J6,2,Pin_2*%
%TO.N,GND*%
X107660000Y-52520000D03*
%TD*%
D10*
%TO.P,J3,1,Pin_1*%
%TO.N,GND*%
X67460000Y-81945000D03*
D11*
%TO.P,J3,2,Pin_2*%
%TO.N,SERVO5V*%
X67460000Y-84485000D03*
%TO.P,J3,3,Pin_3*%
%TO.N,SERVO_3*%
X67460000Y-87025000D03*
%TD*%
D10*
%TO.P,J2,1,Pin_1*%
%TO.N,GND*%
X62870000Y-81945000D03*
D11*
%TO.P,J2,2,Pin_2*%
%TO.N,SERVO5V*%
X62870000Y-84485000D03*
%TO.P,J2,3,Pin_3*%
%TO.N,SERVO_2*%
X62870000Y-87025000D03*
%TD*%
D10*
%TO.P,J1,1,Pin_1*%
%TO.N,GND*%
X58280000Y-81945000D03*
D11*
%TO.P,J1,2,Pin_2*%
%TO.N,SERVO5V*%
X58280000Y-84485000D03*
%TO.P,J1,3,Pin_3*%
%TO.N,SERVO_1*%
X58280000Y-87025000D03*
%TD*%
D17*
%TO.P,U1,39,GND*%
%TO.N,GND*%
X77860000Y-67395000D03*
X77860000Y-68795000D03*
X78560000Y-66695000D03*
X78560000Y-68095000D03*
X78560000Y-69495000D03*
X79235000Y-67395000D03*
X79235000Y-68795000D03*
X79960000Y-66695000D03*
X79960000Y-68095000D03*
X79960000Y-69495000D03*
X80660000Y-67395000D03*
X80660000Y-68795000D03*
%TD*%
D18*
%TO.N,TXD0{slash}IO1*%
X98504339Y-82000000D03*
%TO.N,RXd0{slash}IO3*%
X105520062Y-69019938D03*
%TO.N,TXD0{slash}IO1*%
X103853654Y-76251765D03*
%TO.N,+3V3*%
X87800717Y-81359401D03*
X94078867Y-83289917D03*
X90655000Y-88025000D03*
X99759264Y-84869265D03*
X96730000Y-83850000D03*
X74450000Y-63976472D03*
X91620000Y-81360000D03*
X86187500Y-87025000D03*
X86468718Y-88625000D03*
X88270000Y-80840000D03*
X93716979Y-91086980D03*
X86204485Y-83115515D03*
%TO.N,GND*%
X115875470Y-71254530D03*
X94520079Y-82000000D03*
X93704265Y-84575735D03*
X89060000Y-60694998D03*
X91750000Y-90375000D03*
X115176209Y-72252326D03*
X80660000Y-66695000D03*
X113690000Y-77420000D03*
X86365797Y-92825000D03*
X85731765Y-92711765D03*
X105290000Y-92690000D03*
X115176209Y-72252326D03*
%TO.N,SERVO5V*%
X69900000Y-87575000D03*
%TO.N,+5V*%
X90655000Y-84675000D03*
X96730000Y-86150000D03*
X89590000Y-91925000D03*
%TO.N,SERVO_2*%
X73800000Y-75650000D03*
X72010000Y-75615000D03*
%TO.N,RXd0{slash}IO3*%
X104960000Y-66680000D03*
%TO.N,io22*%
X87080000Y-80240000D03*
X95200000Y-63585000D03*
X116230000Y-72480000D03*
X114759530Y-79150470D03*
X111278235Y-87348235D03*
X86650000Y-79480000D03*
%TO.N,io21*%
X91240000Y-82960000D03*
X84623418Y-79480477D03*
X104966319Y-86634849D03*
X106140000Y-88930000D03*
X107515000Y-89802929D03*
X89510000Y-66725000D03*
%TD*%
D19*
%TO.N,TXD0{slash}IO1*%
X87068718Y-89093782D02*
X86187500Y-89975000D01*
X87068718Y-85062753D02*
X87068718Y-89093782D01*
X91371471Y-80760000D02*
X87068718Y-85062753D01*
X97264339Y-80760000D02*
X91371471Y-80760000D01*
X98504339Y-82000000D02*
X97264339Y-80760000D01*
%TO.N,RXd0{slash}IO3*%
X105685000Y-68855000D02*
X107264314Y-68855000D01*
X105520062Y-69019938D02*
X105685000Y-68855000D01*
X107264314Y-68855000D02*
X107547157Y-69137843D01*
%TO.N,TXD0{slash}IO1*%
X95448529Y-62985000D02*
X90710000Y-62985000D01*
X103853654Y-71390125D02*
X95448529Y-62985000D01*
X103853654Y-76251765D02*
X103853654Y-71390125D01*
X90710000Y-62985000D02*
X89510000Y-64185000D01*
%TO.N,+3V3*%
X86468718Y-87306218D02*
X86187500Y-87025000D01*
X74450000Y-68458529D02*
X86831471Y-80840000D01*
X74450000Y-63976472D02*
X74450000Y-68458529D01*
X86831471Y-80840000D02*
X88270000Y-80840000D01*
X86204485Y-83115515D02*
X86204485Y-82955633D01*
X94078867Y-83289917D02*
X93549917Y-83289917D01*
X93549917Y-83289917D02*
X91620000Y-81360000D01*
X86468718Y-88625000D02*
X86468718Y-87306218D01*
X93716979Y-91086980D02*
X90655000Y-88025001D01*
X98739999Y-83850000D02*
X96730000Y-83850000D01*
X99759264Y-84869265D02*
X98739999Y-83850000D01*
X86204485Y-82955633D02*
X87800717Y-81359401D01*
X90655000Y-88025001D02*
X90655000Y-88025000D01*
%TO.N,GND*%
X106784999Y-92690000D02*
X112324697Y-87150302D01*
X112324697Y-87150302D02*
X112324697Y-85224999D01*
X89635000Y-92825000D02*
X86365797Y-92825000D01*
X94678867Y-82158788D02*
X94678867Y-83601133D01*
X94678867Y-83601133D02*
X93704265Y-84575735D01*
X91750000Y-90710000D02*
X89635000Y-92825000D01*
X91750000Y-90375000D02*
X91750000Y-90710000D01*
X112324697Y-85224999D02*
X111524698Y-84425000D01*
X115875470Y-71254530D02*
X115875470Y-71553065D01*
X89060000Y-60694998D02*
X86660002Y-60694998D01*
X113690000Y-73738535D02*
X115176209Y-72252326D01*
X105290000Y-92690000D02*
X106784999Y-92690000D01*
X115208883Y-72285000D02*
X115208883Y-72219652D01*
X83885000Y-91240000D02*
X82870000Y-90225000D01*
X85731765Y-92711765D02*
X84260000Y-91240000D01*
X113690000Y-77420000D02*
X113690000Y-73738535D01*
X86660002Y-60694998D02*
X80660000Y-66695000D01*
X115875470Y-71553065D02*
X115176209Y-72252326D01*
X84260000Y-91240000D02*
X83885000Y-91240000D01*
X94520079Y-82000000D02*
X94678867Y-82158788D01*
%TO.N,SERVO5V*%
X75750000Y-93425000D02*
X99024698Y-93425000D01*
X69900000Y-87575000D02*
X75750000Y-93425000D01*
X99024698Y-93425000D02*
X108024698Y-84425000D01*
%TO.N,+5V*%
X89590000Y-91925000D02*
X89590000Y-85740000D01*
X89590000Y-85740000D02*
X90655000Y-84675000D01*
%TO.N,SERVO_2*%
X72045000Y-75650000D02*
X72010000Y-75615000D01*
X73800000Y-75650000D02*
X72045000Y-75650000D01*
%TO.N,RXd0{slash}IO3*%
X105000000Y-66720000D02*
X105695000Y-66720000D01*
X105695000Y-66720000D02*
X107830000Y-68855000D01*
X104960000Y-66680000D02*
X105000000Y-66720000D01*
%TO.N,io22*%
X116230000Y-77680000D02*
X116230000Y-72480000D01*
X114759530Y-79150470D02*
X116230000Y-77680000D01*
X95200000Y-70930000D02*
X86650000Y-79480000D01*
X111278235Y-87348235D02*
X111278235Y-85793793D01*
X105724442Y-80240000D02*
X87080000Y-80240000D01*
X95200000Y-63585000D02*
X95200000Y-70930000D01*
X111278235Y-85793793D02*
X105724442Y-80240000D01*
%TO.N,io21*%
X75050000Y-68492843D02*
X77863739Y-71306582D01*
X73850000Y-68707059D02*
X73850000Y-63727943D01*
X74201471Y-63376472D02*
X74698529Y-63376472D01*
X84928418Y-71306582D02*
X89510000Y-66725000D01*
X104541168Y-87060000D02*
X104966319Y-86634849D01*
X75050000Y-63727943D02*
X75050000Y-68492843D01*
X77863739Y-71306582D02*
X84928418Y-71306582D01*
X106140000Y-88930000D02*
X106642071Y-88930000D01*
X106642071Y-88930000D02*
X107515000Y-89802929D01*
X73850000Y-63727943D02*
X74201471Y-63376472D01*
X84623418Y-79480477D02*
X73850000Y-68707059D01*
X91240000Y-82960000D02*
X95340000Y-87060000D01*
X74698529Y-63376472D02*
X75050000Y-63727943D01*
X95340000Y-87060000D02*
X104541168Y-87060000D01*
%TD*%
%TA.AperFunction,Conductor*%
%TO.N,GND*%
G36*
X91517136Y-84087069D02*
G01*
X91525301Y-84094537D01*
X93084928Y-85654164D01*
X94971284Y-87540520D01*
X94971286Y-87540521D01*
X94971290Y-87540524D01*
X95108209Y-87619573D01*
X95108216Y-87619577D01*
X95260943Y-87660501D01*
X95260945Y-87660501D01*
X95426654Y-87660501D01*
X95426670Y-87660500D01*
X103640601Y-87660500D01*
X103707640Y-87680185D01*
X103753395Y-87732989D01*
X103763339Y-87802147D01*
X103734314Y-87865703D01*
X103728282Y-87872181D01*
X98812282Y-92788181D01*
X98750959Y-92821666D01*
X98724601Y-92824500D01*
X90093439Y-92824500D01*
X90026400Y-92804815D01*
X89980645Y-92752011D01*
X89970701Y-92682853D01*
X89999726Y-92619297D01*
X90024548Y-92597398D01*
X90053981Y-92577730D01*
X90100289Y-92546789D01*
X90211789Y-92435289D01*
X90299394Y-92304179D01*
X90359737Y-92158497D01*
X90390500Y-92003842D01*
X90390500Y-91846158D01*
X90390500Y-91846155D01*
X90390499Y-91846153D01*
X90363171Y-91708769D01*
X90359737Y-91691503D01*
X90320706Y-91597272D01*
X90299397Y-91545827D01*
X90299390Y-91545814D01*
X90211398Y-91414125D01*
X90190520Y-91347447D01*
X90190500Y-91345234D01*
X90190500Y-88884631D01*
X90197464Y-88860912D01*
X90200285Y-88836351D01*
X90207136Y-88827973D01*
X90210185Y-88817592D01*
X90228864Y-88801406D01*
X90244518Y-88782266D01*
X90254812Y-88778922D01*
X90262989Y-88771837D01*
X90287455Y-88768319D01*
X90310970Y-88760681D01*
X90323950Y-88763071D01*
X90332147Y-88761893D01*
X90346034Y-88764708D01*
X90354172Y-88766848D01*
X90421503Y-88794737D01*
X90576158Y-88825500D01*
X90577227Y-88825500D01*
X90584190Y-88827331D01*
X90611012Y-88843508D01*
X90638758Y-88858022D01*
X90640337Y-88859573D01*
X92882404Y-91101640D01*
X92915889Y-91162963D01*
X92916340Y-91165129D01*
X92947240Y-91320471D01*
X92947243Y-91320481D01*
X93007581Y-91466152D01*
X93007588Y-91466165D01*
X93095189Y-91597268D01*
X93095192Y-91597272D01*
X93206686Y-91708766D01*
X93206690Y-91708769D01*
X93337793Y-91796370D01*
X93337806Y-91796377D01*
X93457978Y-91846153D01*
X93483482Y-91856717D01*
X93638132Y-91887479D01*
X93638135Y-91887480D01*
X93638137Y-91887480D01*
X93795823Y-91887480D01*
X93795824Y-91887479D01*
X93950476Y-91856717D01*
X94096158Y-91796374D01*
X94227268Y-91708769D01*
X94338768Y-91597269D01*
X94426373Y-91466159D01*
X94486716Y-91320477D01*
X94517479Y-91165822D01*
X94517479Y-91008138D01*
X94517479Y-91008135D01*
X94517478Y-91008133D01*
X94486717Y-90853490D01*
X94486716Y-90853483D01*
X94454208Y-90775000D01*
X94426376Y-90707807D01*
X94426369Y-90707794D01*
X94338768Y-90576691D01*
X94338765Y-90576687D01*
X94227271Y-90465193D01*
X94227267Y-90465190D01*
X94096164Y-90377589D01*
X94096151Y-90377582D01*
X93950480Y-90317244D01*
X93950470Y-90317241D01*
X93795128Y-90286341D01*
X93733217Y-90253956D01*
X93731639Y-90252405D01*
X91489574Y-88010340D01*
X91456089Y-87949017D01*
X91455638Y-87946850D01*
X91428117Y-87808497D01*
X91424737Y-87791503D01*
X91406296Y-87746982D01*
X91364397Y-87645827D01*
X91364390Y-87645814D01*
X91276789Y-87514711D01*
X91276786Y-87514707D01*
X91165292Y-87403213D01*
X91165288Y-87403210D01*
X91034185Y-87315609D01*
X91034172Y-87315602D01*
X90888501Y-87255264D01*
X90888489Y-87255261D01*
X90733845Y-87224500D01*
X90733842Y-87224500D01*
X90576158Y-87224500D01*
X90576155Y-87224500D01*
X90421510Y-87255261D01*
X90421498Y-87255264D01*
X90361952Y-87279929D01*
X90292482Y-87287398D01*
X90230003Y-87256122D01*
X90194352Y-87196033D01*
X90190500Y-87165368D01*
X90190500Y-86040097D01*
X90210185Y-85973058D01*
X90226819Y-85952416D01*
X90442678Y-85736557D01*
X90669662Y-85509572D01*
X90730983Y-85476089D01*
X90733150Y-85475638D01*
X90791085Y-85464113D01*
X90888497Y-85444737D01*
X91001166Y-85398067D01*
X91034172Y-85384397D01*
X91034172Y-85384396D01*
X91034179Y-85384394D01*
X91165289Y-85296789D01*
X91276789Y-85185289D01*
X91364394Y-85054179D01*
X91424737Y-84908497D01*
X91455500Y-84753842D01*
X91455500Y-84596158D01*
X91455500Y-84596155D01*
X91455499Y-84596153D01*
X91448186Y-84559390D01*
X91424737Y-84441503D01*
X91391099Y-84360292D01*
X91364397Y-84295827D01*
X91364389Y-84295813D01*
X91334519Y-84251110D01*
X91313640Y-84184433D01*
X91332124Y-84117053D01*
X91384102Y-84070362D01*
X91453072Y-84059184D01*
X91517136Y-84087069D01*
G37*
%TD.AperFunction*%
%TA.AperFunction,Conductor*%
G36*
X105491384Y-80860185D02*
G01*
X105512026Y-80876819D01*
X107548026Y-82912819D01*
X107581511Y-82974142D01*
X107576527Y-83043834D01*
X107534655Y-83099767D01*
X107469191Y-83124184D01*
X107460348Y-83124500D01*
X107424698Y-83124500D01*
X107424678Y-83124501D01*
X107321901Y-83135000D01*
X107321898Y-83135001D01*
X107155366Y-83190185D01*
X107155361Y-83190187D01*
X107006040Y-83282289D01*
X106881987Y-83406342D01*
X106789885Y-83555663D01*
X106789883Y-83555668D01*
X106762047Y-83639670D01*
X106734699Y-83722203D01*
X106734699Y-83722204D01*
X106734698Y-83722204D01*
X106724198Y-83824983D01*
X106724198Y-84824902D01*
X106704513Y-84891941D01*
X106687879Y-84912583D01*
X105614982Y-85985479D01*
X105553659Y-86018964D01*
X105483967Y-86013980D01*
X105458410Y-86000900D01*
X105345504Y-85925458D01*
X105345491Y-85925451D01*
X105199820Y-85865113D01*
X105199808Y-85865110D01*
X105045164Y-85834349D01*
X105045161Y-85834349D01*
X104887477Y-85834349D01*
X104887474Y-85834349D01*
X104732829Y-85865110D01*
X104732817Y-85865113D01*
X104587146Y-85925451D01*
X104587133Y-85925458D01*
X104456030Y-86013059D01*
X104456026Y-86013062D01*
X104344532Y-86124556D01*
X104344529Y-86124560D01*
X104256928Y-86255663D01*
X104256926Y-86255667D01*
X104256925Y-86255670D01*
X104204201Y-86382955D01*
X104160364Y-86437355D01*
X104094070Y-86459421D01*
X104089643Y-86459500D01*
X97635714Y-86459500D01*
X97568675Y-86439815D01*
X97522920Y-86387011D01*
X97512976Y-86317853D01*
X97514097Y-86311309D01*
X97530499Y-86228846D01*
X97530500Y-86228844D01*
X97530500Y-86071155D01*
X97530499Y-86071153D01*
X97524805Y-86042528D01*
X97499737Y-85916503D01*
X97478605Y-85865486D01*
X97439397Y-85770827D01*
X97439390Y-85770814D01*
X97351789Y-85639711D01*
X97351786Y-85639707D01*
X97240292Y-85528213D01*
X97240288Y-85528210D01*
X97109185Y-85440609D01*
X97109172Y-85440602D01*
X96963501Y-85380264D01*
X96963489Y-85380261D01*
X96808845Y-85349500D01*
X96808842Y-85349500D01*
X96651158Y-85349500D01*
X96651155Y-85349500D01*
X96496510Y-85380261D01*
X96496498Y-85380264D01*
X96350827Y-85440602D01*
X96350814Y-85440609D01*
X96219711Y-85528210D01*
X96219707Y-85528213D01*
X96108213Y-85639707D01*
X96108210Y-85639711D01*
X96020609Y-85770814D01*
X96020602Y-85770827D01*
X95960264Y-85916498D01*
X95960261Y-85916510D01*
X95929500Y-86071153D01*
X95929500Y-86228846D01*
X95945903Y-86311309D01*
X95944025Y-86332292D01*
X95947024Y-86353147D01*
X95940973Y-86366394D01*
X95939676Y-86380900D01*
X95926751Y-86397538D01*
X95917999Y-86416703D01*
X95905747Y-86424576D01*
X95896813Y-86436078D01*
X95876944Y-86443087D01*
X95859221Y-86454477D01*
X95834637Y-86458011D01*
X95830923Y-86459322D01*
X95824286Y-86459500D01*
X95640098Y-86459500D01*
X95573059Y-86439815D01*
X95552417Y-86423181D01*
X93179539Y-84050303D01*
X93146054Y-83988980D01*
X93151038Y-83919288D01*
X93192910Y-83863355D01*
X93258374Y-83838938D01*
X93314672Y-83848061D01*
X93318127Y-83849492D01*
X93318129Y-83849492D01*
X93318132Y-83849494D01*
X93470860Y-83890418D01*
X93499103Y-83890418D01*
X93566142Y-83910103D01*
X93567994Y-83911316D01*
X93699681Y-83999307D01*
X93699694Y-83999314D01*
X93829815Y-84053211D01*
X93845370Y-84059654D01*
X93983194Y-84087069D01*
X94000020Y-84090416D01*
X94000023Y-84090417D01*
X94000025Y-84090417D01*
X94157711Y-84090417D01*
X94157712Y-84090416D01*
X94312364Y-84059654D01*
X94458046Y-83999311D01*
X94589156Y-83911706D01*
X94700656Y-83800206D01*
X94720069Y-83771153D01*
X95929500Y-83771153D01*
X95929500Y-83928846D01*
X95960261Y-84083489D01*
X95960264Y-84083501D01*
X96020602Y-84229172D01*
X96020609Y-84229185D01*
X96108210Y-84360288D01*
X96108213Y-84360292D01*
X96219707Y-84471786D01*
X96219711Y-84471789D01*
X96350814Y-84559390D01*
X96350827Y-84559397D01*
X96441248Y-84596850D01*
X96496503Y-84619737D01*
X96651153Y-84650499D01*
X96651156Y-84650500D01*
X96651158Y-84650500D01*
X96808844Y-84650500D01*
X96808845Y-84650499D01*
X96963497Y-84619737D01*
X97109179Y-84559394D01*
X97212906Y-84490086D01*
X97240875Y-84471398D01*
X97307553Y-84450520D01*
X97309766Y-84450500D01*
X98439902Y-84450500D01*
X98506941Y-84470185D01*
X98527583Y-84486819D01*
X98924689Y-84883925D01*
X98958174Y-84945248D01*
X98958625Y-84947414D01*
X98989525Y-85102756D01*
X98989528Y-85102766D01*
X99049866Y-85248437D01*
X99049873Y-85248450D01*
X99137474Y-85379553D01*
X99137477Y-85379557D01*
X99248971Y-85491051D01*
X99248975Y-85491054D01*
X99380078Y-85578655D01*
X99380091Y-85578662D01*
X99503445Y-85629756D01*
X99525767Y-85639002D01*
X99680417Y-85669764D01*
X99680420Y-85669765D01*
X99680422Y-85669765D01*
X99838108Y-85669765D01*
X99838109Y-85669764D01*
X99992761Y-85639002D01*
X100138443Y-85578659D01*
X100269553Y-85491054D01*
X100381053Y-85379554D01*
X100468658Y-85248444D01*
X100529001Y-85102762D01*
X100559764Y-84948107D01*
X100559764Y-84790423D01*
X100559764Y-84790420D01*
X100559763Y-84790418D01*
X100529001Y-84635768D01*
X100506826Y-84582233D01*
X100468661Y-84490092D01*
X100468654Y-84490079D01*
X100381053Y-84358976D01*
X100381050Y-84358972D01*
X100269556Y-84247478D01*
X100269552Y-84247475D01*
X100138449Y-84159874D01*
X100138436Y-84159867D01*
X99992765Y-84099529D01*
X99992755Y-84099526D01*
X99837413Y-84068626D01*
X99775502Y-84036241D01*
X99773924Y-84034690D01*
X99227589Y-83488355D01*
X99227587Y-83488352D01*
X99108716Y-83369481D01*
X99108715Y-83369480D01*
X98997481Y-83305259D01*
X98997481Y-83305258D01*
X98997476Y-83305257D01*
X98988510Y-83300080D01*
X98971785Y-83290423D01*
X98933602Y-83280192D01*
X98819056Y-83249499D01*
X98660942Y-83249499D01*
X98653346Y-83249499D01*
X98653330Y-83249500D01*
X97309766Y-83249500D01*
X97242727Y-83229815D01*
X97240875Y-83228602D01*
X97109185Y-83140609D01*
X97109172Y-83140602D01*
X96963501Y-83080264D01*
X96963489Y-83080261D01*
X96808845Y-83049500D01*
X96808842Y-83049500D01*
X96651158Y-83049500D01*
X96651155Y-83049500D01*
X96496510Y-83080261D01*
X96496498Y-83080264D01*
X96350827Y-83140602D01*
X96350814Y-83140609D01*
X96219711Y-83228210D01*
X96219707Y-83228213D01*
X96108213Y-83339707D01*
X96108210Y-83339711D01*
X96020609Y-83470814D01*
X96020602Y-83470827D01*
X95960264Y-83616498D01*
X95960261Y-83616510D01*
X95929500Y-83771153D01*
X94720069Y-83771153D01*
X94747742Y-83729737D01*
X94770168Y-83696175D01*
X94788257Y-83669102D01*
X94788257Y-83669101D01*
X94788261Y-83669096D01*
X94848604Y-83523414D01*
X94879367Y-83368759D01*
X94879367Y-83211075D01*
X94879367Y-83211072D01*
X94879366Y-83211070D01*
X94870750Y-83167754D01*
X94848604Y-83056420D01*
X94814524Y-82974142D01*
X94788264Y-82910744D01*
X94788257Y-82910731D01*
X94700656Y-82779628D01*
X94700653Y-82779624D01*
X94589159Y-82668130D01*
X94589155Y-82668127D01*
X94458052Y-82580526D01*
X94458039Y-82580519D01*
X94312368Y-82520181D01*
X94312356Y-82520178D01*
X94157712Y-82489417D01*
X94157709Y-82489417D01*
X94000025Y-82489417D01*
X94000022Y-82489417D01*
X93845377Y-82520178D01*
X93845370Y-82520180D01*
X93769211Y-82551725D01*
X93699742Y-82559192D01*
X93637263Y-82527917D01*
X93634079Y-82524844D01*
X92681416Y-81572181D01*
X92647931Y-81510858D01*
X92652915Y-81441166D01*
X92694787Y-81385233D01*
X92760251Y-81360816D01*
X92769097Y-81360500D01*
X96964242Y-81360500D01*
X97031281Y-81380185D01*
X97051923Y-81396819D01*
X97669764Y-82014660D01*
X97703249Y-82075983D01*
X97703700Y-82078149D01*
X97734600Y-82233491D01*
X97734603Y-82233501D01*
X97794941Y-82379172D01*
X97794948Y-82379185D01*
X97882549Y-82510288D01*
X97882552Y-82510292D01*
X97994046Y-82621786D01*
X97994050Y-82621789D01*
X98125153Y-82709390D01*
X98125166Y-82709397D01*
X98245432Y-82759212D01*
X98270842Y-82769737D01*
X98425492Y-82800499D01*
X98425495Y-82800500D01*
X98425497Y-82800500D01*
X98583183Y-82800500D01*
X98583184Y-82800499D01*
X98737836Y-82769737D01*
X98883518Y-82709394D01*
X99014628Y-82621789D01*
X99126128Y-82510289D01*
X99213733Y-82379179D01*
X99274076Y-82233497D01*
X99304839Y-82078842D01*
X99304839Y-81921158D01*
X99304839Y-81921155D01*
X99304838Y-81921153D01*
X99274076Y-81766503D01*
X99266167Y-81747409D01*
X99213736Y-81620827D01*
X99213729Y-81620814D01*
X99126128Y-81489711D01*
X99126125Y-81489707D01*
X99014631Y-81378213D01*
X99014627Y-81378210D01*
X98883524Y-81290609D01*
X98883511Y-81290602D01*
X98737840Y-81230264D01*
X98737830Y-81230261D01*
X98582488Y-81199361D01*
X98565731Y-81190595D01*
X98547253Y-81186576D01*
X98522216Y-81167833D01*
X98520577Y-81166976D01*
X98518999Y-81165425D01*
X98405755Y-81052181D01*
X98372270Y-80990858D01*
X98377254Y-80921166D01*
X98419126Y-80865233D01*
X98484590Y-80840816D01*
X98493436Y-80840500D01*
X105424345Y-80840500D01*
X105491384Y-80860185D01*
G37*
%TD.AperFunction*%
%TA.AperFunction,Conductor*%
G36*
X117612272Y-37904685D02*
G01*
X117658027Y-37957489D01*
X117669231Y-38009764D01*
X117300757Y-97817004D01*
X117280659Y-97883921D01*
X117227575Y-97929350D01*
X117177002Y-97940240D01*
X56394743Y-98059245D01*
X56327665Y-98039691D01*
X56281807Y-97986977D01*
X56270500Y-97935245D01*
X56270500Y-84378713D01*
X56929500Y-84378713D01*
X56929500Y-84591287D01*
X56934006Y-84619735D01*
X56961039Y-84790420D01*
X56962754Y-84801243D01*
X57010473Y-84948107D01*
X57028444Y-85003414D01*
X57124951Y-85192820D01*
X57249890Y-85364786D01*
X57400213Y-85515109D01*
X57572182Y-85640050D01*
X57580946Y-85644516D01*
X57631742Y-85692491D01*
X57648536Y-85760312D01*
X57625998Y-85826447D01*
X57580946Y-85865484D01*
X57572182Y-85869949D01*
X57400213Y-85994890D01*
X57249890Y-86145213D01*
X57124951Y-86317179D01*
X57028444Y-86506585D01*
X56962753Y-86708760D01*
X56945664Y-86816657D01*
X56929500Y-86918713D01*
X56929500Y-87131287D01*
X56932862Y-87152511D01*
X56954225Y-87287398D01*
X56962754Y-87341243D01*
X57027503Y-87540520D01*
X57028444Y-87543414D01*
X57124951Y-87732820D01*
X57249890Y-87904786D01*
X57400213Y-88055109D01*
X57572179Y-88180048D01*
X57572181Y-88180049D01*
X57572184Y-88180051D01*
X57761588Y-88276557D01*
X57963757Y-88342246D01*
X58173713Y-88375500D01*
X58173714Y-88375500D01*
X58386286Y-88375500D01*
X58386287Y-88375500D01*
X58596243Y-88342246D01*
X58798412Y-88276557D01*
X58987816Y-88180051D01*
X59030919Y-88148735D01*
X59159786Y-88055109D01*
X59159788Y-88055106D01*
X59159792Y-88055104D01*
X59310104Y-87904792D01*
X59310106Y-87904788D01*
X59310109Y-87904786D01*
X59431580Y-87737593D01*
X59435051Y-87732816D01*
X59531557Y-87543412D01*
X59597246Y-87341243D01*
X59630500Y-87131287D01*
X59630500Y-86918713D01*
X59597246Y-86708757D01*
X59531557Y-86506588D01*
X59435051Y-86317184D01*
X59435049Y-86317181D01*
X59435048Y-86317179D01*
X59310109Y-86145213D01*
X59159786Y-85994890D01*
X58987820Y-85869951D01*
X58987115Y-85869591D01*
X58979054Y-85865485D01*
X58928259Y-85817512D01*
X58911463Y-85749692D01*
X58933999Y-85683556D01*
X58979054Y-85644515D01*
X58987816Y-85640051D01*
X59044314Y-85599003D01*
X59159786Y-85515109D01*
X59159788Y-85515106D01*
X59159792Y-85515104D01*
X59310104Y-85364792D01*
X59310106Y-85364788D01*
X59310109Y-85364786D01*
X59435048Y-85192820D01*
X59435047Y-85192820D01*
X59435051Y-85192816D01*
X59531557Y-85003412D01*
X59597246Y-84801243D01*
X59630500Y-84591287D01*
X59630500Y-84378713D01*
X61519500Y-84378713D01*
X61519500Y-84591287D01*
X61524006Y-84619735D01*
X61551039Y-84790420D01*
X61552754Y-84801243D01*
X61600473Y-84948107D01*
X61618444Y-85003414D01*
X61714951Y-85192820D01*
X61839890Y-85364786D01*
X61990213Y-85515109D01*
X62162182Y-85640050D01*
X62170946Y-85644516D01*
X62221742Y-85692491D01*
X62238536Y-85760312D01*
X62215998Y-85826447D01*
X62170946Y-85865484D01*
X62162182Y-85869949D01*
X61990213Y-85994890D01*
X61839890Y-86145213D01*
X61714951Y-86317179D01*
X61618444Y-86506585D01*
X61552753Y-86708760D01*
X61535664Y-86816657D01*
X61519500Y-86918713D01*
X61519500Y-87131287D01*
X61522862Y-87152511D01*
X61544225Y-87287398D01*
X61552754Y-87341243D01*
X61617503Y-87540520D01*
X61618444Y-87543414D01*
X61714951Y-87732820D01*
X61839890Y-87904786D01*
X61990213Y-88055109D01*
X62162179Y-88180048D01*
X62162181Y-88180049D01*
X62162184Y-88180051D01*
X62351588Y-88276557D01*
X62553757Y-88342246D01*
X62763713Y-88375500D01*
X62763714Y-88375500D01*
X62976286Y-88375500D01*
X62976287Y-88375500D01*
X63186243Y-88342246D01*
X63388412Y-88276557D01*
X63577816Y-88180051D01*
X63620919Y-88148735D01*
X63749786Y-88055109D01*
X63749788Y-88055106D01*
X63749792Y-88055104D01*
X63900104Y-87904792D01*
X63900106Y-87904788D01*
X63900109Y-87904786D01*
X64021580Y-87737593D01*
X64025051Y-87732816D01*
X64121557Y-87543412D01*
X64187246Y-87341243D01*
X64220500Y-87131287D01*
X64220500Y-86918713D01*
X64187246Y-86708757D01*
X64121557Y-86506588D01*
X64025051Y-86317184D01*
X64025049Y-86317181D01*
X64025048Y-86317179D01*
X63900109Y-86145213D01*
X63749786Y-85994890D01*
X63577820Y-85869951D01*
X63577115Y-85869591D01*
X63569054Y-85865485D01*
X63518259Y-85817512D01*
X63501463Y-85749692D01*
X63523999Y-85683556D01*
X63569054Y-85644515D01*
X63577816Y-85640051D01*
X63634314Y-85599003D01*
X63749786Y-85515109D01*
X63749788Y-85515106D01*
X63749792Y-85515104D01*
X63900104Y-85364792D01*
X63900106Y-85364788D01*
X63900109Y-85364786D01*
X64025048Y-85192820D01*
X64025047Y-85192820D01*
X64025051Y-85192816D01*
X64121557Y-85003412D01*
X64187246Y-84801243D01*
X64220500Y-84591287D01*
X64220500Y-84378713D01*
X66109500Y-84378713D01*
X66109500Y-84591287D01*
X66114006Y-84619735D01*
X66141039Y-84790420D01*
X66142754Y-84801243D01*
X66190473Y-84948107D01*
X66208444Y-85003414D01*
X66304951Y-85192820D01*
X66429890Y-85364786D01*
X66580213Y-85515109D01*
X66752182Y-85640050D01*
X66760946Y-85644516D01*
X66811742Y-85692491D01*
X66828536Y-85760312D01*
X66805998Y-85826447D01*
X66760946Y-85865484D01*
X66752182Y-85869949D01*
X66580213Y-85994890D01*
X66429890Y-86145213D01*
X66304951Y-86317179D01*
X66208444Y-86506585D01*
X66142753Y-86708760D01*
X66125664Y-86816657D01*
X66109500Y-86918713D01*
X66109500Y-87131287D01*
X66112862Y-87152511D01*
X66134225Y-87287398D01*
X66142754Y-87341243D01*
X66207503Y-87540520D01*
X66208444Y-87543414D01*
X66304951Y-87732820D01*
X66429890Y-87904786D01*
X66580213Y-88055109D01*
X66752179Y-88180048D01*
X66752181Y-88180049D01*
X66752184Y-88180051D01*
X66941588Y-88276557D01*
X67143757Y-88342246D01*
X67353713Y-88375500D01*
X67353714Y-88375500D01*
X67566286Y-88375500D01*
X67566287Y-88375500D01*
X67776243Y-88342246D01*
X67978412Y-88276557D01*
X68167816Y-88180051D01*
X68210919Y-88148735D01*
X68339786Y-88055109D01*
X68339788Y-88055106D01*
X68339792Y-88055104D01*
X68490104Y-87904792D01*
X68490106Y-87904788D01*
X68490109Y-87904786D01*
X68611580Y-87737593D01*
X68615051Y-87732816D01*
X68711557Y-87543412D01*
X68726912Y-87496153D01*
X69099500Y-87496153D01*
X69099500Y-87653846D01*
X69130261Y-87808489D01*
X69130264Y-87808501D01*
X69190602Y-87954172D01*
X69190609Y-87954185D01*
X69278210Y-88085288D01*
X69278213Y-88085292D01*
X69389707Y-88196786D01*
X69389711Y-88196789D01*
X69520814Y-88284390D01*
X69520827Y-88284397D01*
X69660489Y-88342246D01*
X69666503Y-88344737D01*
X69731147Y-88357595D01*
X69821849Y-88375638D01*
X69883760Y-88408023D01*
X69885339Y-88409574D01*
X75149658Y-93673893D01*
X75183143Y-93735216D01*
X75178159Y-93804908D01*
X75162295Y-93834459D01*
X75086659Y-93938563D01*
X74979433Y-94149003D01*
X74906446Y-94373631D01*
X74869500Y-94606902D01*
X74869500Y-94843097D01*
X74906446Y-95076368D01*
X74979433Y-95300996D01*
X75086657Y-95511433D01*
X75225483Y-95702510D01*
X75392490Y-95869517D01*
X75583567Y-96008343D01*
X75682991Y-96059002D01*
X75794003Y-96115566D01*
X75794005Y-96115566D01*
X75794008Y-96115568D01*
X75914412Y-96154689D01*
X76018631Y-96188553D01*
X76251903Y-96225500D01*
X76251908Y-96225500D01*
X76488097Y-96225500D01*
X76721368Y-96188553D01*
X76945992Y-96115568D01*
X77156433Y-96008343D01*
X77347510Y-95869517D01*
X77514517Y-95702510D01*
X77653343Y-95511433D01*
X77760568Y-95300992D01*
X77833553Y-95076368D01*
X77870500Y-94843097D01*
X77870500Y-94606902D01*
X77833553Y-94373631D01*
X77773178Y-94187819D01*
X77771183Y-94117978D01*
X77807263Y-94058145D01*
X77869964Y-94027316D01*
X77891109Y-94025500D01*
X81348891Y-94025500D01*
X81415930Y-94045185D01*
X81461685Y-94097989D01*
X81471629Y-94167147D01*
X81466822Y-94187819D01*
X81406446Y-94373631D01*
X81369500Y-94606902D01*
X81369500Y-94843097D01*
X81406446Y-95076368D01*
X81479433Y-95300996D01*
X81586657Y-95511433D01*
X81725483Y-95702510D01*
X81892490Y-95869517D01*
X82083567Y-96008343D01*
X82182991Y-96059002D01*
X82294003Y-96115566D01*
X82294005Y-96115566D01*
X82294008Y-96115568D01*
X82414412Y-96154689D01*
X82518631Y-96188553D01*
X82751903Y-96225500D01*
X82751908Y-96225500D01*
X82988097Y-96225500D01*
X83221368Y-96188553D01*
X83445992Y-96115568D01*
X83656433Y-96008343D01*
X83847510Y-95869517D01*
X84014517Y-95702510D01*
X84153343Y-95511433D01*
X84260568Y-95300992D01*
X84333553Y-95076368D01*
X84370500Y-94843097D01*
X84370500Y-94606902D01*
X84333553Y-94373631D01*
X84273178Y-94187819D01*
X84271183Y-94117978D01*
X84307263Y-94058145D01*
X84369964Y-94027316D01*
X84391109Y-94025500D01*
X98938029Y-94025500D01*
X98938045Y-94025501D01*
X98945641Y-94025501D01*
X99103752Y-94025501D01*
X99103755Y-94025501D01*
X99256483Y-93984577D01*
X99336174Y-93938567D01*
X99393414Y-93905520D01*
X99505218Y-93793716D01*
X99505218Y-93793714D01*
X99515422Y-93783511D01*
X99515426Y-93783506D01*
X104447779Y-88851153D01*
X105339500Y-88851153D01*
X105339500Y-89008846D01*
X105370261Y-89163489D01*
X105370264Y-89163501D01*
X105430602Y-89309172D01*
X105430609Y-89309185D01*
X105518210Y-89440288D01*
X105518213Y-89440292D01*
X105629707Y-89551786D01*
X105629711Y-89551789D01*
X105760814Y-89639390D01*
X105760827Y-89639397D01*
X105906498Y-89699735D01*
X105906503Y-89699737D01*
X106028893Y-89724082D01*
X106061153Y-89730499D01*
X106061156Y-89730500D01*
X106061158Y-89730500D01*
X106218844Y-89730500D01*
X106218845Y-89730499D01*
X106373497Y-89699737D01*
X106430646Y-89676064D01*
X106450520Y-89673927D01*
X106469253Y-89666941D01*
X106484549Y-89670268D01*
X106500114Y-89668595D01*
X106517991Y-89677543D01*
X106537526Y-89681793D01*
X106559812Y-89698476D01*
X106562594Y-89699869D01*
X106565780Y-89702944D01*
X106680425Y-89817589D01*
X106713910Y-89878912D01*
X106714361Y-89881078D01*
X106745261Y-90036420D01*
X106745264Y-90036430D01*
X106805602Y-90182101D01*
X106805609Y-90182114D01*
X106893210Y-90313217D01*
X106893213Y-90313221D01*
X107004707Y-90424715D01*
X107004711Y-90424718D01*
X107135814Y-90512319D01*
X107135827Y-90512326D01*
X107257462Y-90562708D01*
X107281503Y-90572666D01*
X107436153Y-90603428D01*
X107436156Y-90603429D01*
X107436158Y-90603429D01*
X107593844Y-90603429D01*
X107593845Y-90603428D01*
X107748497Y-90572666D01*
X107894179Y-90512323D01*
X108025289Y-90424718D01*
X108136789Y-90313218D01*
X108224394Y-90182108D01*
X108284737Y-90036426D01*
X108315500Y-89881771D01*
X108315500Y-89724087D01*
X108315500Y-89724084D01*
X108315499Y-89724082D01*
X108298653Y-89639394D01*
X108284737Y-89569432D01*
X108277428Y-89551786D01*
X108224397Y-89423756D01*
X108224390Y-89423743D01*
X108136789Y-89292640D01*
X108136786Y-89292636D01*
X108025292Y-89181142D01*
X108025288Y-89181139D01*
X107894185Y-89093538D01*
X107894172Y-89093531D01*
X107748501Y-89033193D01*
X107748491Y-89033190D01*
X107593149Y-89002290D01*
X107531238Y-88969905D01*
X107529660Y-88968354D01*
X107129661Y-88568355D01*
X107129659Y-88568352D01*
X107010788Y-88449481D01*
X107010787Y-88449480D01*
X106910367Y-88391503D01*
X106910366Y-88391502D01*
X106873854Y-88370422D01*
X106817952Y-88355443D01*
X106721128Y-88329499D01*
X106721125Y-88329499D01*
X106719764Y-88329499D01*
X106718657Y-88329173D01*
X106713068Y-88328438D01*
X106713182Y-88327566D01*
X106652725Y-88309814D01*
X106650873Y-88308601D01*
X106519185Y-88220609D01*
X106519172Y-88220602D01*
X106373501Y-88160264D01*
X106373489Y-88160261D01*
X106218845Y-88129500D01*
X106218842Y-88129500D01*
X106061158Y-88129500D01*
X106061155Y-88129500D01*
X105906510Y-88160261D01*
X105906498Y-88160264D01*
X105760827Y-88220602D01*
X105760814Y-88220609D01*
X105629711Y-88308210D01*
X105629707Y-88308213D01*
X105518213Y-88419707D01*
X105518210Y-88419711D01*
X105430609Y-88550814D01*
X105430602Y-88550827D01*
X105370264Y-88696498D01*
X105370261Y-88696510D01*
X105339500Y-88851153D01*
X104447779Y-88851153D01*
X107537114Y-85761818D01*
X107598437Y-85728333D01*
X107624795Y-85725499D01*
X108624700Y-85725499D01*
X108624706Y-85725499D01*
X108727495Y-85714999D01*
X108894032Y-85659814D01*
X109043354Y-85567712D01*
X109167410Y-85443656D01*
X109259512Y-85294334D01*
X109314697Y-85127797D01*
X109325198Y-85025009D01*
X109325197Y-84989351D01*
X109344880Y-84922315D01*
X109397683Y-84876559D01*
X109466841Y-84866614D01*
X109530397Y-84895637D01*
X109536878Y-84901671D01*
X110641416Y-86006209D01*
X110674901Y-86067532D01*
X110677735Y-86093890D01*
X110677735Y-86768469D01*
X110658050Y-86835508D01*
X110656837Y-86837360D01*
X110568844Y-86969049D01*
X110568837Y-86969062D01*
X110508499Y-87114733D01*
X110508496Y-87114745D01*
X110477735Y-87269388D01*
X110477735Y-87427081D01*
X110508496Y-87581724D01*
X110508499Y-87581736D01*
X110568837Y-87727407D01*
X110568844Y-87727420D01*
X110656445Y-87858523D01*
X110656448Y-87858527D01*
X110767942Y-87970021D01*
X110767946Y-87970024D01*
X110899049Y-88057625D01*
X110899062Y-88057632D01*
X111030979Y-88112273D01*
X111044738Y-88117972D01*
X111199388Y-88148734D01*
X111199391Y-88148735D01*
X111199393Y-88148735D01*
X111357079Y-88148735D01*
X111357080Y-88148734D01*
X111511732Y-88117972D01*
X111657414Y-88057629D01*
X111788524Y-87970024D01*
X111900024Y-87858524D01*
X111987629Y-87727414D01*
X112047972Y-87581732D01*
X112078735Y-87427077D01*
X112078735Y-87269393D01*
X112078735Y-87269390D01*
X112078734Y-87269388D01*
X112064102Y-87195827D01*
X112047972Y-87114738D01*
X112047970Y-87114733D01*
X111987632Y-86969062D01*
X111987625Y-86969049D01*
X111899633Y-86837360D01*
X111878755Y-86770682D01*
X111878735Y-86768469D01*
X111878735Y-85766958D01*
X111898420Y-85699919D01*
X111951224Y-85654164D01*
X111964418Y-85649027D01*
X112023719Y-85629759D01*
X112023725Y-85629756D01*
X112206047Y-85536859D01*
X112250619Y-85504474D01*
X111571144Y-84825000D01*
X111577359Y-84825000D01*
X111679092Y-84797741D01*
X111770304Y-84745080D01*
X111844778Y-84670606D01*
X111897439Y-84579394D01*
X111924698Y-84477661D01*
X111924698Y-84471448D01*
X112604172Y-85150922D01*
X112604172Y-85150921D01*
X112636557Y-85106349D01*
X112729453Y-84924031D01*
X112792688Y-84729417D01*
X112824698Y-84527317D01*
X112824698Y-84322682D01*
X112792688Y-84120582D01*
X112729453Y-83925968D01*
X112636557Y-83743650D01*
X112604172Y-83699077D01*
X112604172Y-83699076D01*
X111924698Y-84378551D01*
X111924698Y-84372339D01*
X111897439Y-84270606D01*
X111844778Y-84179394D01*
X111770304Y-84104920D01*
X111679092Y-84052259D01*
X111577359Y-84025000D01*
X111571144Y-84025000D01*
X112250620Y-83345524D01*
X112250619Y-83345523D01*
X112206057Y-83313147D01*
X112206048Y-83313141D01*
X112023729Y-83220244D01*
X111829115Y-83157009D01*
X111627015Y-83125000D01*
X111422381Y-83125000D01*
X111220280Y-83157009D01*
X111025666Y-83220244D01*
X110843342Y-83313143D01*
X110798775Y-83345523D01*
X110798775Y-83345524D01*
X111478252Y-84025000D01*
X111472037Y-84025000D01*
X111370304Y-84052259D01*
X111279092Y-84104920D01*
X111204618Y-84179394D01*
X111151957Y-84270606D01*
X111124698Y-84372339D01*
X111124698Y-84378553D01*
X110445222Y-83699077D01*
X110445221Y-83699077D01*
X110412841Y-83743645D01*
X110412836Y-83743653D01*
X110377072Y-83813844D01*
X110329098Y-83864640D01*
X110261277Y-83881435D01*
X110195142Y-83858897D01*
X110178907Y-83845230D01*
X106212032Y-79878355D01*
X106212030Y-79878352D01*
X106093159Y-79759481D01*
X106093158Y-79759480D01*
X106006346Y-79709360D01*
X106006346Y-79709359D01*
X106006342Y-79709358D01*
X105956227Y-79680423D01*
X105803499Y-79639499D01*
X105645385Y-79639499D01*
X105637789Y-79639499D01*
X105637773Y-79639500D01*
X87659766Y-79639500D01*
X87641618Y-79634171D01*
X87622709Y-79633833D01*
X87594498Y-79620335D01*
X87592727Y-79619815D01*
X87590872Y-79618600D01*
X87578481Y-79610320D01*
X87533678Y-79556706D01*
X87524972Y-79487381D01*
X87555129Y-79424354D01*
X87559675Y-79419558D01*
X87907610Y-79071623D01*
X113959030Y-79071623D01*
X113959030Y-79229316D01*
X113989791Y-79383959D01*
X113989794Y-79383971D01*
X114050132Y-79529642D01*
X114050139Y-79529655D01*
X114137740Y-79660758D01*
X114137743Y-79660762D01*
X114249237Y-79772256D01*
X114249241Y-79772259D01*
X114380344Y-79859860D01*
X114380357Y-79859867D01*
X114526028Y-79920205D01*
X114526033Y-79920207D01*
X114680683Y-79950969D01*
X114680686Y-79950970D01*
X114680688Y-79950970D01*
X114838374Y-79950970D01*
X114838375Y-79950969D01*
X114993027Y-79920207D01*
X115111134Y-79871286D01*
X115138702Y-79859867D01*
X115138702Y-79859866D01*
X115138709Y-79859864D01*
X115269819Y-79772259D01*
X115381319Y-79660759D01*
X115468924Y-79529649D01*
X115529267Y-79383967D01*
X115548643Y-79286555D01*
X115560168Y-79228620D01*
X115592553Y-79166709D01*
X115594046Y-79165188D01*
X116710520Y-78048716D01*
X116789577Y-77911784D01*
X116830501Y-77759057D01*
X116830501Y-77600942D01*
X116830501Y-77593347D01*
X116830500Y-77593329D01*
X116830500Y-73059765D01*
X116850185Y-72992726D01*
X116851398Y-72990874D01*
X116939390Y-72859185D01*
X116939390Y-72859184D01*
X116939394Y-72859179D01*
X116999737Y-72713497D01*
X117030500Y-72558842D01*
X117030500Y-72401158D01*
X117030500Y-72401155D01*
X117030499Y-72401153D01*
X116999738Y-72246510D01*
X116999737Y-72246503D01*
X116946826Y-72118763D01*
X116939397Y-72100827D01*
X116939390Y-72100814D01*
X116851789Y-71969711D01*
X116851786Y-71969707D01*
X116740292Y-71858213D01*
X116740288Y-71858210D01*
X116609185Y-71770609D01*
X116609172Y-71770602D01*
X116463501Y-71710264D01*
X116463489Y-71710261D01*
X116308845Y-71679500D01*
X116308842Y-71679500D01*
X116151158Y-71679500D01*
X116151155Y-71679500D01*
X115996510Y-71710261D01*
X115996498Y-71710264D01*
X115850827Y-71770602D01*
X115850814Y-71770609D01*
X115719711Y-71858210D01*
X115719707Y-71858213D01*
X115608213Y-71969707D01*
X115608210Y-71969711D01*
X115520609Y-72100814D01*
X115520602Y-72100827D01*
X115460264Y-72246498D01*
X115460261Y-72246510D01*
X115429500Y-72401153D01*
X115429500Y-72558846D01*
X115460261Y-72713489D01*
X115460264Y-72713501D01*
X115520602Y-72859172D01*
X115520609Y-72859185D01*
X115608602Y-72990874D01*
X115629480Y-73057551D01*
X115629500Y-73059765D01*
X115629500Y-77379902D01*
X115609815Y-77446941D01*
X115593181Y-77467583D01*
X114744869Y-78315895D01*
X114683546Y-78349380D01*
X114681380Y-78349831D01*
X114526038Y-78380731D01*
X114526028Y-78380734D01*
X114380357Y-78441072D01*
X114380344Y-78441079D01*
X114249241Y-78528680D01*
X114249237Y-78528683D01*
X114137743Y-78640177D01*
X114137740Y-78640181D01*
X114050139Y-78771284D01*
X114050132Y-78771297D01*
X113989794Y-78916968D01*
X113989791Y-78916980D01*
X113959030Y-79071623D01*
X87907610Y-79071623D01*
X95568713Y-71410521D01*
X95568716Y-71410520D01*
X95680520Y-71298716D01*
X95730639Y-71211904D01*
X95759577Y-71161785D01*
X95800501Y-71009057D01*
X95800501Y-70850943D01*
X95800501Y-70843348D01*
X95800500Y-70843330D01*
X95800500Y-64485568D01*
X95820185Y-64418529D01*
X95872989Y-64372774D01*
X95942147Y-64362830D01*
X96005703Y-64391855D01*
X96012181Y-64397887D01*
X103216835Y-71602541D01*
X103250320Y-71663864D01*
X103253154Y-71690222D01*
X103253154Y-75671999D01*
X103233469Y-75739038D01*
X103232256Y-75740890D01*
X103144263Y-75872579D01*
X103144256Y-75872592D01*
X103083918Y-76018263D01*
X103083915Y-76018275D01*
X103053154Y-76172918D01*
X103053154Y-76330611D01*
X103083915Y-76485254D01*
X103083918Y-76485266D01*
X103144256Y-76630937D01*
X103144263Y-76630950D01*
X103231864Y-76762053D01*
X103231867Y-76762057D01*
X103343361Y-76873551D01*
X103343365Y-76873554D01*
X103474468Y-76961155D01*
X103474481Y-76961162D01*
X103620152Y-77021500D01*
X103620157Y-77021502D01*
X103774807Y-77052264D01*
X103774810Y-77052265D01*
X103774812Y-77052265D01*
X103932498Y-77052265D01*
X103932499Y-77052264D01*
X104087151Y-77021502D01*
X104232833Y-76961159D01*
X104363943Y-76873554D01*
X104475443Y-76762054D01*
X104563048Y-76630944D01*
X104623391Y-76485262D01*
X104654154Y-76330607D01*
X104654154Y-76172923D01*
X104654154Y-76172920D01*
X104654153Y-76172918D01*
X104623391Y-76018268D01*
X104597843Y-75956588D01*
X104563051Y-75872592D01*
X104563044Y-75872579D01*
X104475052Y-75740890D01*
X104454174Y-75674212D01*
X104454154Y-75671999D01*
X104454154Y-71479185D01*
X104454155Y-71479172D01*
X104454155Y-71311069D01*
X104427581Y-71211895D01*
X104413231Y-71158341D01*
X104413227Y-71158334D01*
X104334178Y-71021415D01*
X104334172Y-71021407D01*
X102251609Y-68938844D01*
X99913918Y-66601153D01*
X104159500Y-66601153D01*
X104159500Y-66758846D01*
X104190261Y-66913489D01*
X104190264Y-66913501D01*
X104250602Y-67059172D01*
X104250609Y-67059185D01*
X104338210Y-67190288D01*
X104338213Y-67190292D01*
X104449707Y-67301786D01*
X104449711Y-67301789D01*
X104580814Y-67389390D01*
X104580827Y-67389397D01*
X104726498Y-67449735D01*
X104726503Y-67449737D01*
X104849647Y-67474232D01*
X104881153Y-67480499D01*
X104881156Y-67480500D01*
X104881158Y-67480500D01*
X105038844Y-67480500D01*
X105038845Y-67480499D01*
X105193497Y-67449737D01*
X105339179Y-67389394D01*
X105360056Y-67375443D01*
X105426730Y-67354565D01*
X105494111Y-67373047D01*
X105516629Y-67390864D01*
X106168584Y-68042819D01*
X106202069Y-68104142D01*
X106197085Y-68173834D01*
X106155213Y-68229767D01*
X106089749Y-68254184D01*
X106080903Y-68254500D01*
X105786125Y-68254500D01*
X105759694Y-68250579D01*
X105759534Y-68251389D01*
X105598907Y-68219438D01*
X105598904Y-68219438D01*
X105441220Y-68219438D01*
X105441217Y-68219438D01*
X105286572Y-68250199D01*
X105286560Y-68250202D01*
X105140889Y-68310540D01*
X105140876Y-68310547D01*
X105009773Y-68398148D01*
X105009769Y-68398151D01*
X104898275Y-68509645D01*
X104898272Y-68509649D01*
X104810671Y-68640752D01*
X104810664Y-68640765D01*
X104750326Y-68786436D01*
X104750323Y-68786448D01*
X104719562Y-68941091D01*
X104719562Y-69098784D01*
X104750323Y-69253427D01*
X104750326Y-69253439D01*
X104810664Y-69399110D01*
X104810671Y-69399123D01*
X104898272Y-69530226D01*
X104898275Y-69530230D01*
X105009769Y-69641724D01*
X105009773Y-69641727D01*
X105140876Y-69729328D01*
X105140889Y-69729335D01*
X105286560Y-69789673D01*
X105286565Y-69789675D01*
X105441215Y-69820437D01*
X105441218Y-69820438D01*
X105441220Y-69820438D01*
X105598906Y-69820438D01*
X105598907Y-69820437D01*
X105753559Y-69789675D01*
X105899241Y-69729332D01*
X106030351Y-69641727D01*
X106141851Y-69530227D01*
X106154960Y-69510607D01*
X106208573Y-69465804D01*
X106258062Y-69455500D01*
X106544281Y-69455500D01*
X106611320Y-69475185D01*
X106654765Y-69523205D01*
X106674947Y-69562814D01*
X106674948Y-69562815D01*
X106799890Y-69734786D01*
X106950213Y-69885109D01*
X107122182Y-70010050D01*
X107130946Y-70014516D01*
X107181742Y-70062491D01*
X107198536Y-70130312D01*
X107175998Y-70196447D01*
X107130946Y-70235484D01*
X107122182Y-70239949D01*
X106950213Y-70364890D01*
X106799890Y-70515213D01*
X106674951Y-70687179D01*
X106578444Y-70876585D01*
X106512753Y-71078760D01*
X106479500Y-71288713D01*
X106479500Y-71501286D01*
X106512598Y-71710263D01*
X106512754Y-71711243D01*
X106576386Y-71907082D01*
X106578444Y-71913414D01*
X106674951Y-72102820D01*
X106799890Y-72274786D01*
X106950213Y-72425109D01*
X107122182Y-72550050D01*
X107130946Y-72554516D01*
X107181742Y-72602491D01*
X107198536Y-72670312D01*
X107175998Y-72736447D01*
X107130946Y-72775484D01*
X107122182Y-72779949D01*
X106950213Y-72904890D01*
X106799890Y-73055213D01*
X106674951Y-73227179D01*
X106578444Y-73416585D01*
X106512753Y-73618760D01*
X106479500Y-73828713D01*
X106479500Y-74041286D01*
X106512753Y-74251239D01*
X106578444Y-74453414D01*
X106674951Y-74642820D01*
X106799890Y-74814786D01*
X106950213Y-74965109D01*
X107122182Y-75090050D01*
X107130946Y-75094516D01*
X107181742Y-75142491D01*
X107198536Y-75210312D01*
X107175998Y-75276447D01*
X107130946Y-75315484D01*
X107122182Y-75319949D01*
X106950213Y-75444890D01*
X106799890Y-75595213D01*
X106674951Y-75767179D01*
X106578444Y-75956585D01*
X106512753Y-76158760D01*
X106479500Y-76368713D01*
X106479500Y-76581286D01*
X106508130Y-76762053D01*
X106512754Y-76791243D01*
X106567964Y-76961162D01*
X106578444Y-76993414D01*
X106674951Y-77182820D01*
X106799890Y-77354786D01*
X106950213Y-77505109D01*
X107122179Y-77630048D01*
X107122181Y-77630049D01*
X107122184Y-77630051D01*
X107311588Y-77726557D01*
X107513757Y-77792246D01*
X107723713Y-77825500D01*
X107723714Y-77825500D01*
X107936286Y-77825500D01*
X107936287Y-77825500D01*
X108146243Y-77792246D01*
X108348412Y-77726557D01*
X108537816Y-77630051D01*
X108588360Y-77593329D01*
X108709786Y-77505109D01*
X108709788Y-77505106D01*
X108709792Y-77505104D01*
X108860104Y-77354792D01*
X108860106Y-77354788D01*
X108860109Y-77354786D01*
X108985048Y-77182820D01*
X108985047Y-77182820D01*
X108985051Y-77182816D01*
X109081557Y-76993412D01*
X109147246Y-76791243D01*
X109180500Y-76581287D01*
X109180500Y-76368713D01*
X109147246Y-76158757D01*
X109081557Y-75956588D01*
X108985051Y-75767184D01*
X108985049Y-75767181D01*
X108985048Y-75767179D01*
X108860109Y-75595213D01*
X108709786Y-75444890D01*
X108537820Y-75319951D01*
X108537115Y-75319591D01*
X108529054Y-75315485D01*
X108478259Y-75267512D01*
X108461463Y-75199692D01*
X108483999Y-75133556D01*
X108529054Y-75094515D01*
X108537816Y-75090051D01*
X108593658Y-75049480D01*
X108709786Y-74965109D01*
X108709788Y-74965106D01*
X108709792Y-74965104D01*
X108860104Y-74814792D01*
X108860106Y-74814788D01*
X108860109Y-74814786D01*
X108985048Y-74642820D01*
X108985047Y-74642820D01*
X108985051Y-74642816D01*
X109081557Y-74453412D01*
X109147246Y-74251243D01*
X109180500Y-74041287D01*
X109180500Y-73828713D01*
X109147246Y-73618757D01*
X109081557Y-73416588D01*
X108985051Y-73227184D01*
X108985049Y-73227181D01*
X108985048Y-73227179D01*
X108860109Y-73055213D01*
X108709786Y-72904890D01*
X108537820Y-72779951D01*
X108537115Y-72779591D01*
X108529054Y-72775485D01*
X108478259Y-72727512D01*
X108461463Y-72659692D01*
X108483999Y-72593556D01*
X108529054Y-72554515D01*
X108537816Y-72550051D01*
X108559789Y-72534086D01*
X108709786Y-72425109D01*
X108709788Y-72425106D01*
X108709792Y-72425104D01*
X108860104Y-72274792D01*
X108860106Y-72274788D01*
X108860109Y-72274786D01*
X108985048Y-72102820D01*
X108985047Y-72102820D01*
X108985051Y-72102816D01*
X109081557Y-71913412D01*
X109147246Y-71711243D01*
X109180500Y-71501287D01*
X109180500Y-71288713D01*
X109147246Y-71078757D01*
X109081557Y-70876588D01*
X108985051Y-70687184D01*
X108985049Y-70687181D01*
X108985048Y-70687179D01*
X108860109Y-70515213D01*
X108709786Y-70364890D01*
X108537820Y-70239951D01*
X108537115Y-70239591D01*
X108529054Y-70235485D01*
X108478259Y-70187512D01*
X108461463Y-70119692D01*
X108483999Y-70053556D01*
X108529054Y-70014515D01*
X108537816Y-70010051D01*
X108559789Y-69994086D01*
X108709786Y-69885109D01*
X108709788Y-69885106D01*
X108709792Y-69885104D01*
X108860104Y-69734792D01*
X108860106Y-69734788D01*
X108860109Y-69734786D01*
X108985048Y-69562820D01*
X108985047Y-69562820D01*
X108985051Y-69562816D01*
X109081557Y-69373412D01*
X109147246Y-69171243D01*
X109180500Y-68961287D01*
X109180500Y-68748713D01*
X109147246Y-68538757D01*
X109081557Y-68336588D01*
X108985051Y-68147184D01*
X108985049Y-68147181D01*
X108985048Y-68147179D01*
X108860109Y-67975213D01*
X108709786Y-67824890D01*
X108537817Y-67699949D01*
X108528504Y-67695204D01*
X108477707Y-67647230D01*
X108460912Y-67579409D01*
X108483449Y-67513274D01*
X108528507Y-67474232D01*
X108537555Y-67469622D01*
X108591716Y-67430270D01*
X108591717Y-67430270D01*
X107959408Y-66797962D01*
X108022993Y-66780925D01*
X108137007Y-66715099D01*
X108230099Y-66622007D01*
X108295925Y-66507993D01*
X108312962Y-66444408D01*
X108945270Y-67076717D01*
X108945270Y-67076716D01*
X108984622Y-67022554D01*
X109081095Y-66833217D01*
X109146757Y-66631130D01*
X109146757Y-66631127D01*
X109180000Y-66421246D01*
X109180000Y-66208753D01*
X109146757Y-65998872D01*
X109146757Y-65998869D01*
X109081095Y-65796782D01*
X108984624Y-65607449D01*
X108945270Y-65553282D01*
X108945269Y-65553282D01*
X108312962Y-66185590D01*
X108295925Y-66122007D01*
X108230099Y-66007993D01*
X108137007Y-65914901D01*
X108022993Y-65849075D01*
X107959409Y-65832037D01*
X108629627Y-65161818D01*
X108690950Y-65128333D01*
X108717307Y-65125499D01*
X108727872Y-65125499D01*
X108787483Y-65119091D01*
X108922331Y-65068796D01*
X109037546Y-64982546D01*
X109123796Y-64867331D01*
X109174091Y-64732483D01*
X109180500Y-64672873D01*
X109180499Y-62877128D01*
X109174091Y-62817517D01*
X109173859Y-62816896D01*
X109123797Y-62682671D01*
X109123793Y-62682664D01*
X109037547Y-62567455D01*
X109037544Y-62567452D01*
X108922335Y-62481206D01*
X108922328Y-62481202D01*
X108787482Y-62430908D01*
X108787483Y-62430908D01*
X108727883Y-62424501D01*
X108727881Y-62424500D01*
X108727873Y-62424500D01*
X108727864Y-62424500D01*
X106932129Y-62424500D01*
X106932123Y-62424501D01*
X106872516Y-62430908D01*
X106737671Y-62481202D01*
X106737664Y-62481206D01*
X106622455Y-62567452D01*
X106622452Y-62567455D01*
X106536206Y-62682664D01*
X106536202Y-62682671D01*
X106485908Y-62817517D01*
X106479501Y-62877116D01*
X106479501Y-62877123D01*
X106479500Y-62877135D01*
X106479500Y-64672870D01*
X106479501Y-64672876D01*
X106485908Y-64732483D01*
X106536202Y-64867328D01*
X106536206Y-64867335D01*
X106622452Y-64982544D01*
X106622455Y-64982547D01*
X106737664Y-65068793D01*
X106737671Y-65068797D01*
X106782618Y-65085561D01*
X106872517Y-65119091D01*
X106932127Y-65125500D01*
X106942685Y-65125499D01*
X107009723Y-65145179D01*
X107030372Y-65161818D01*
X107700591Y-65832037D01*
X107637007Y-65849075D01*
X107522993Y-65914901D01*
X107429901Y-66007993D01*
X107364075Y-66122007D01*
X107347037Y-66185591D01*
X106714728Y-65553282D01*
X106714727Y-65553282D01*
X106675380Y-65607439D01*
X106578904Y-65796782D01*
X106513242Y-65998869D01*
X106513242Y-65998872D01*
X106480000Y-66208753D01*
X106480000Y-66356403D01*
X106473761Y-66377648D01*
X106472182Y-66399737D01*
X106464109Y-66410520D01*
X106460315Y-66423442D01*
X106443581Y-66437941D01*
X106430310Y-66455670D01*
X106417689Y-66460377D01*
X106407511Y-66469197D01*
X106385593Y-66472348D01*
X106364846Y-66480087D01*
X106351685Y-66477224D01*
X106338353Y-66479141D01*
X106318209Y-66469941D01*
X106296573Y-66465235D01*
X106278847Y-66451966D01*
X106274797Y-66450116D01*
X106268319Y-66444084D01*
X106182590Y-66358355D01*
X106182588Y-66358352D01*
X106063717Y-66239481D01*
X106063716Y-66239480D01*
X105976904Y-66189360D01*
X105976904Y-66189359D01*
X105976900Y-66189358D01*
X105926785Y-66160423D01*
X105774057Y-66119499D01*
X105615943Y-66119499D01*
X105608347Y-66119499D01*
X105608331Y-66119500D01*
X105582941Y-66119500D01*
X105515902Y-66099815D01*
X105495260Y-66083181D01*
X105470292Y-66058213D01*
X105470288Y-66058210D01*
X105339185Y-65970609D01*
X105339172Y-65970602D01*
X105193501Y-65910264D01*
X105193489Y-65910261D01*
X105038845Y-65879500D01*
X105038842Y-65879500D01*
X104881158Y-65879500D01*
X104881155Y-65879500D01*
X104726510Y-65910261D01*
X104726498Y-65910264D01*
X104580827Y-65970602D01*
X104580814Y-65970609D01*
X104449711Y-66058210D01*
X104449707Y-66058213D01*
X104338213Y-66169707D01*
X104338210Y-66169711D01*
X104250609Y-66300814D01*
X104250602Y-66300827D01*
X104190264Y-66446498D01*
X104190261Y-66446510D01*
X104159500Y-66601153D01*
X99913918Y-66601153D01*
X95936118Y-62623354D01*
X95936117Y-62623352D01*
X95817246Y-62504481D01*
X95817245Y-62504480D01*
X95730433Y-62454360D01*
X95730433Y-62454359D01*
X95730429Y-62454358D01*
X95680314Y-62425423D01*
X95527586Y-62384499D01*
X95369472Y-62384499D01*
X95361876Y-62384499D01*
X95361860Y-62384500D01*
X90789057Y-62384500D01*
X90630942Y-62384500D01*
X90478215Y-62425423D01*
X90478214Y-62425423D01*
X90478212Y-62425424D01*
X90478209Y-62425425D01*
X90428096Y-62454359D01*
X90428095Y-62454360D01*
X90384689Y-62479420D01*
X90341285Y-62504479D01*
X90341282Y-62504481D01*
X90229478Y-62616286D01*
X89029483Y-63816281D01*
X89029481Y-63816284D01*
X88950423Y-63953214D01*
X88936781Y-64004124D01*
X88909499Y-64105943D01*
X88909499Y-64105945D01*
X88909499Y-64264054D01*
X88909498Y-64264054D01*
X88909499Y-64264057D01*
X88950423Y-64416785D01*
X89029481Y-64553716D01*
X89141284Y-64665519D01*
X89278215Y-64744577D01*
X89430943Y-64785501D01*
X89430946Y-64785501D01*
X89589054Y-64785501D01*
X89589057Y-64785501D01*
X89741785Y-64744577D01*
X89878716Y-64665519D01*
X90922416Y-63621819D01*
X90983739Y-63588334D01*
X91010097Y-63585500D01*
X94282152Y-63585500D01*
X94349191Y-63605185D01*
X94394946Y-63657989D01*
X94403769Y-63685308D01*
X94430261Y-63818491D01*
X94430264Y-63818501D01*
X94490602Y-63964172D01*
X94490609Y-63964185D01*
X94578602Y-64095874D01*
X94599480Y-64162551D01*
X94599500Y-64164765D01*
X94599500Y-70629903D01*
X94579815Y-70696942D01*
X94563181Y-70717584D01*
X86635339Y-78645425D01*
X86574016Y-78678910D01*
X86571850Y-78679361D01*
X86416508Y-78710261D01*
X86416498Y-78710264D01*
X86270827Y-78770602D01*
X86270814Y-78770609D01*
X86139711Y-78858210D01*
X86139707Y-78858213D01*
X86028217Y-78969704D01*
X86028211Y-78969711D01*
X86024914Y-78974645D01*
X85971299Y-79019447D01*
X85901973Y-79028150D01*
X85838948Y-78997992D01*
X85834135Y-78993429D01*
X78959469Y-72118763D01*
X78925984Y-72057440D01*
X78930968Y-71987748D01*
X78972840Y-71931815D01*
X79038304Y-71907398D01*
X79047150Y-71907082D01*
X84841749Y-71907082D01*
X84841765Y-71907083D01*
X84849361Y-71907083D01*
X85007472Y-71907083D01*
X85007475Y-71907083D01*
X85160203Y-71866159D01*
X85223698Y-71829500D01*
X85297134Y-71787102D01*
X85408938Y-71675298D01*
X85408938Y-71675296D01*
X85419142Y-71665093D01*
X85419145Y-71665088D01*
X89524662Y-67559572D01*
X89585983Y-67526089D01*
X89588150Y-67525638D01*
X89650306Y-67513274D01*
X89743497Y-67494737D01*
X89889179Y-67434394D01*
X90020289Y-67346789D01*
X90131789Y-67235289D01*
X90219394Y-67104179D01*
X90279737Y-66958497D01*
X90310500Y-66803842D01*
X90310500Y-66646158D01*
X90310500Y-66646155D01*
X90310499Y-66646153D01*
X90283017Y-66507993D01*
X90279737Y-66491503D01*
X90274617Y-66479141D01*
X90219397Y-66345827D01*
X90219390Y-66345814D01*
X90131789Y-66214711D01*
X90131786Y-66214707D01*
X90020292Y-66103213D01*
X90020288Y-66103210D01*
X89889185Y-66015609D01*
X89889172Y-66015602D01*
X89743501Y-65955264D01*
X89743489Y-65955261D01*
X89588845Y-65924500D01*
X89588842Y-65924500D01*
X89431158Y-65924500D01*
X89431155Y-65924500D01*
X89276510Y-65955261D01*
X89276498Y-65955264D01*
X89130827Y-66015602D01*
X89130814Y-66015609D01*
X88999711Y-66103210D01*
X88999707Y-66103213D01*
X88888213Y-66214707D01*
X88888210Y-66214711D01*
X88800609Y-66345814D01*
X88800602Y-66345827D01*
X88740264Y-66491498D01*
X88740261Y-66491508D01*
X88709361Y-66646850D01*
X88676976Y-66708761D01*
X88675425Y-66710339D01*
X84716002Y-70669763D01*
X84654679Y-70703248D01*
X84628321Y-70706082D01*
X78163836Y-70706082D01*
X78096797Y-70686397D01*
X78076155Y-70669763D01*
X75686819Y-68280427D01*
X75653334Y-68219104D01*
X75650500Y-68192746D01*
X75650500Y-63648888D01*
X75650500Y-63648886D01*
X75609577Y-63496159D01*
X75609577Y-63496158D01*
X75551321Y-63395256D01*
X75530520Y-63359227D01*
X75418716Y-63247423D01*
X75418715Y-63247422D01*
X75414385Y-63243092D01*
X75414374Y-63243082D01*
X75186119Y-63014827D01*
X75186117Y-63014824D01*
X75067246Y-62895953D01*
X75067245Y-62895952D01*
X74980433Y-62845832D01*
X74980433Y-62845831D01*
X74980429Y-62845830D01*
X74930314Y-62816895D01*
X74777586Y-62775971D01*
X74619472Y-62775971D01*
X74611876Y-62775971D01*
X74611860Y-62775972D01*
X74280528Y-62775972D01*
X74122414Y-62775972D01*
X73969686Y-62816895D01*
X73969685Y-62816895D01*
X73969683Y-62816896D01*
X73969680Y-62816897D01*
X73919567Y-62845831D01*
X73919566Y-62845832D01*
X73876160Y-62870892D01*
X73832756Y-62895951D01*
X73832753Y-62895953D01*
X73369479Y-63359227D01*
X73354859Y-63384551D01*
X73348679Y-63395256D01*
X73290423Y-63496158D01*
X73249499Y-63648886D01*
X73249499Y-63648888D01*
X73249499Y-63816989D01*
X73249500Y-63817002D01*
X73249500Y-68620389D01*
X73249499Y-68620407D01*
X73249499Y-68786113D01*
X73249498Y-68786113D01*
X73290423Y-68938844D01*
X73303381Y-68961287D01*
X73303382Y-68961290D01*
X73369475Y-69075768D01*
X73369481Y-69075776D01*
X73488349Y-69194644D01*
X73488355Y-69194649D01*
X83788843Y-79495137D01*
X83822328Y-79556460D01*
X83822779Y-79558626D01*
X83853679Y-79713968D01*
X83853682Y-79713978D01*
X83914020Y-79859649D01*
X83914027Y-79859662D01*
X84001628Y-79990765D01*
X84001631Y-79990769D01*
X84113125Y-80102263D01*
X84113129Y-80102266D01*
X84244232Y-80189867D01*
X84244245Y-80189874D01*
X84389916Y-80250212D01*
X84389921Y-80250214D01*
X84544571Y-80280976D01*
X84544574Y-80280977D01*
X84544576Y-80280977D01*
X84702262Y-80280977D01*
X84702263Y-80280976D01*
X84856915Y-80250214D01*
X85002597Y-80189871D01*
X85115510Y-80114425D01*
X85182187Y-80093547D01*
X85249567Y-80112031D01*
X85272082Y-80129846D01*
X86346610Y-81204374D01*
X86346620Y-81204385D01*
X86350950Y-81208715D01*
X86350951Y-81208716D01*
X86462755Y-81320520D01*
X86532003Y-81360500D01*
X86599686Y-81399577D01*
X86647878Y-81412490D01*
X86657184Y-81416717D01*
X86676203Y-81433129D01*
X86697656Y-81446205D01*
X86702203Y-81455565D01*
X86710082Y-81462364D01*
X86717209Y-81486455D01*
X86728186Y-81509051D01*
X86726950Y-81519383D01*
X86729903Y-81529363D01*
X86722874Y-81553483D01*
X86719892Y-81578427D01*
X86712363Y-81589550D01*
X86710355Y-81596443D01*
X86703893Y-81602065D01*
X86693584Y-81617297D01*
X85978386Y-82332495D01*
X85938159Y-82359375D01*
X85825305Y-82406121D01*
X85825299Y-82406124D01*
X85694196Y-82493725D01*
X85694192Y-82493728D01*
X85582698Y-82605222D01*
X85582695Y-82605226D01*
X85495094Y-82736329D01*
X85495087Y-82736342D01*
X85434749Y-82882013D01*
X85434746Y-82882025D01*
X85403985Y-83036668D01*
X85403985Y-83194361D01*
X85434746Y-83349004D01*
X85434749Y-83349016D01*
X85495087Y-83494687D01*
X85495094Y-83494700D01*
X85582695Y-83625803D01*
X85582698Y-83625807D01*
X85694192Y-83737301D01*
X85694196Y-83737304D01*
X85825299Y-83824905D01*
X85825312Y-83824912D01*
X85945030Y-83874500D01*
X85970988Y-83885252D01*
X86125638Y-83916014D01*
X86125641Y-83916015D01*
X86125643Y-83916015D01*
X86283329Y-83916015D01*
X86283330Y-83916014D01*
X86437982Y-83885252D01*
X86583466Y-83824991D01*
X86583657Y-83824912D01*
X86583657Y-83824911D01*
X86583664Y-83824909D01*
X86714774Y-83737304D01*
X86826274Y-83625804D01*
X86913879Y-83494694D01*
X86974222Y-83349012D01*
X87004985Y-83194357D01*
X87004985Y-83055729D01*
X87024670Y-82988690D01*
X87041304Y-82968048D01*
X87404130Y-82605222D01*
X87815379Y-82193973D01*
X87876700Y-82160490D01*
X87878867Y-82160039D01*
X87936802Y-82148514D01*
X88034214Y-82129138D01*
X88179896Y-82068795D01*
X88311006Y-81981190D01*
X88422506Y-81869690D01*
X88510111Y-81738580D01*
X88510112Y-81738577D01*
X88510114Y-81738574D01*
X88556246Y-81627199D01*
X88600086Y-81572795D01*
X88623353Y-81560091D01*
X88649179Y-81549394D01*
X88780289Y-81461789D01*
X88891789Y-81350289D01*
X88979394Y-81219179D01*
X89039737Y-81073497D01*
X89045266Y-81045703D01*
X89066231Y-80940308D01*
X89098616Y-80878397D01*
X89159332Y-80843823D01*
X89187848Y-80840500D01*
X90142373Y-80840500D01*
X90209412Y-80860185D01*
X90255167Y-80912989D01*
X90265111Y-80982147D01*
X90236086Y-81045703D01*
X90230054Y-81052181D01*
X86588199Y-84694035D01*
X86588197Y-84694037D01*
X86578147Y-84711446D01*
X86562199Y-84739069D01*
X86509141Y-84830968D01*
X86468217Y-84983696D01*
X86468217Y-84983698D01*
X86468217Y-85151799D01*
X86468218Y-85151812D01*
X86468218Y-86113561D01*
X86448533Y-86180600D01*
X86395729Y-86226355D01*
X86326571Y-86236299D01*
X86320027Y-86235178D01*
X86266345Y-86224500D01*
X86266342Y-86224500D01*
X86108658Y-86224500D01*
X86108655Y-86224500D01*
X85954010Y-86255261D01*
X85953998Y-86255264D01*
X85808327Y-86315602D01*
X85808314Y-86315609D01*
X85677211Y-86403210D01*
X85677207Y-86403213D01*
X85565713Y-86514707D01*
X85565710Y-86514711D01*
X85478109Y-86645814D01*
X85478102Y-86645827D01*
X85417764Y-86791498D01*
X85417761Y-86791510D01*
X85387000Y-86946153D01*
X85387000Y-87103846D01*
X85417761Y-87258489D01*
X85417764Y-87258501D01*
X85478102Y-87404172D01*
X85478109Y-87404185D01*
X85565710Y-87535288D01*
X85565713Y-87535292D01*
X85677207Y-87646786D01*
X85677215Y-87646792D01*
X85813108Y-87737593D01*
X85818198Y-87743683D01*
X85825421Y-87746982D01*
X85840285Y-87770112D01*
X85857914Y-87791205D01*
X85859865Y-87800579D01*
X85863195Y-87805760D01*
X85868218Y-87840695D01*
X85868218Y-88045234D01*
X85848533Y-88112273D01*
X85847320Y-88114125D01*
X85759327Y-88245814D01*
X85759320Y-88245827D01*
X85698982Y-88391498D01*
X85698979Y-88391510D01*
X85668218Y-88546153D01*
X85668218Y-88703846D01*
X85698979Y-88858489D01*
X85698982Y-88858501D01*
X85759320Y-89004172D01*
X85759327Y-89004185D01*
X85846928Y-89135288D01*
X85846931Y-89135292D01*
X85924770Y-89213131D01*
X85958255Y-89274454D01*
X85953271Y-89344146D01*
X85924771Y-89388493D01*
X85706980Y-89606284D01*
X85627923Y-89743214D01*
X85627923Y-89743215D01*
X85586999Y-89895943D01*
X85586999Y-89895945D01*
X85586999Y-90054054D01*
X85586998Y-90054054D01*
X85621309Y-90182101D01*
X85627923Y-90206785D01*
X85706981Y-90343716D01*
X85818784Y-90455519D01*
X85955715Y-90534577D01*
X86108443Y-90575501D01*
X86108446Y-90575501D01*
X86266554Y-90575501D01*
X86266557Y-90575501D01*
X86419285Y-90534577D01*
X86556216Y-90455519D01*
X87427224Y-89584509D01*
X87427229Y-89584506D01*
X87437432Y-89574302D01*
X87437434Y-89574302D01*
X87549238Y-89462498D01*
X87628295Y-89325566D01*
X87666994Y-89181140D01*
X87669218Y-89172840D01*
X87669218Y-89014725D01*
X87669218Y-85362850D01*
X87688903Y-85295811D01*
X87705537Y-85275169D01*
X88955706Y-84025000D01*
X90234866Y-82745839D01*
X90296187Y-82712356D01*
X90365879Y-82717340D01*
X90421812Y-82759212D01*
X90446229Y-82824676D01*
X90444163Y-82857710D01*
X90439500Y-82881155D01*
X90439500Y-83038846D01*
X90470261Y-83193489D01*
X90470264Y-83193501D01*
X90530602Y-83339172D01*
X90530609Y-83339185D01*
X90618210Y-83470288D01*
X90618213Y-83470292D01*
X90729707Y-83581786D01*
X90729711Y-83581789D01*
X90833391Y-83651066D01*
X90878196Y-83704678D01*
X90886903Y-83774003D01*
X90856749Y-83837030D01*
X90797306Y-83873750D01*
X90740315Y-83875787D01*
X90733843Y-83874500D01*
X90733842Y-83874500D01*
X90576158Y-83874500D01*
X90576155Y-83874500D01*
X90421510Y-83905261D01*
X90421498Y-83905264D01*
X90275827Y-83965602D01*
X90275814Y-83965609D01*
X90144711Y-84053210D01*
X90144707Y-84053213D01*
X90033213Y-84164707D01*
X90033210Y-84164711D01*
X89945609Y-84295814D01*
X89945602Y-84295827D01*
X89885264Y-84441498D01*
X89885261Y-84441508D01*
X89854361Y-84596850D01*
X89821976Y-84658761D01*
X89820425Y-84660339D01*
X89109481Y-85371282D01*
X89109475Y-85371290D01*
X89067072Y-85444736D01*
X89067072Y-85444737D01*
X89030423Y-85508215D01*
X88989499Y-85660943D01*
X88989499Y-85660945D01*
X88989499Y-85829046D01*
X88989500Y-85829059D01*
X88989500Y-91345234D01*
X88969815Y-91412273D01*
X88968602Y-91414125D01*
X88880609Y-91545814D01*
X88880602Y-91545827D01*
X88820264Y-91691498D01*
X88820261Y-91691510D01*
X88789500Y-91846153D01*
X88789500Y-92003846D01*
X88820261Y-92158489D01*
X88820264Y-92158501D01*
X88880602Y-92304172D01*
X88880609Y-92304185D01*
X88968210Y-92435288D01*
X88968213Y-92435292D01*
X89079707Y-92546786D01*
X89079711Y-92546789D01*
X89155452Y-92597398D01*
X89200257Y-92651010D01*
X89208964Y-92720335D01*
X89178810Y-92783363D01*
X89119366Y-92820082D01*
X89086561Y-92824500D01*
X76050097Y-92824500D01*
X75983058Y-92804815D01*
X75962416Y-92788181D01*
X73281182Y-90106947D01*
X74870000Y-90106947D01*
X74870000Y-90343052D01*
X74906934Y-90576247D01*
X74979897Y-90800802D01*
X75087087Y-91011174D01*
X75147338Y-91094104D01*
X75147340Y-91094105D01*
X75846212Y-90395233D01*
X75857482Y-90437292D01*
X75929890Y-90562708D01*
X76032292Y-90665110D01*
X76157708Y-90737518D01*
X76199765Y-90748787D01*
X75500893Y-91447658D01*
X75583828Y-91507914D01*
X75794197Y-91615102D01*
X76018752Y-91688065D01*
X76018751Y-91688065D01*
X76251948Y-91725000D01*
X76488052Y-91725000D01*
X76721247Y-91688065D01*
X76945802Y-91615102D01*
X77156163Y-91507918D01*
X77156169Y-91507914D01*
X77239104Y-91447658D01*
X77239105Y-91447658D01*
X76540233Y-90748787D01*
X76582292Y-90737518D01*
X76707708Y-90665110D01*
X76810110Y-90562708D01*
X76882518Y-90437292D01*
X76893787Y-90395234D01*
X77592658Y-91094105D01*
X77592658Y-91094104D01*
X77652914Y-91011169D01*
X77652918Y-91011163D01*
X77760102Y-90800802D01*
X77833065Y-90576247D01*
X77870000Y-90343052D01*
X77870000Y-90106947D01*
X81370000Y-90106947D01*
X81370000Y-90343052D01*
X81406934Y-90576247D01*
X81479897Y-90800802D01*
X81587087Y-91011174D01*
X81647338Y-91094104D01*
X81647340Y-91094105D01*
X82346212Y-90395233D01*
X82357482Y-90437292D01*
X82429890Y-90562708D01*
X82532292Y-90665110D01*
X82657708Y-90737518D01*
X82699765Y-90748787D01*
X82000893Y-91447658D01*
X82083828Y-91507914D01*
X82294197Y-91615102D01*
X82518752Y-91688065D01*
X82518751Y-91688065D01*
X82751948Y-91725000D01*
X82988052Y-91725000D01*
X83221247Y-91688065D01*
X83445802Y-91615102D01*
X83656163Y-91507918D01*
X83656169Y-91507914D01*
X83739104Y-91447658D01*
X83739105Y-91447658D01*
X83040233Y-90748787D01*
X83082292Y-90737518D01*
X83207708Y-90665110D01*
X83310110Y-90562708D01*
X83382518Y-90437292D01*
X83393787Y-90395234D01*
X84092658Y-91094105D01*
X84092658Y-91094104D01*
X84152914Y-91011169D01*
X84152918Y-91011163D01*
X84260102Y-90800802D01*
X84333065Y-90576247D01*
X84370000Y-90343052D01*
X84370000Y-90106947D01*
X84333065Y-89873752D01*
X84260102Y-89649197D01*
X84152914Y-89438828D01*
X84092658Y-89355894D01*
X84092658Y-89355893D01*
X83393787Y-90054765D01*
X83382518Y-90012708D01*
X83310110Y-89887292D01*
X83207708Y-89784890D01*
X83082292Y-89712482D01*
X83040234Y-89701212D01*
X83739105Y-89002340D01*
X83739104Y-89002338D01*
X83656174Y-88942087D01*
X83445802Y-88834897D01*
X83221247Y-88761934D01*
X83221248Y-88761934D01*
X82988052Y-88725000D01*
X82751948Y-88725000D01*
X82518752Y-88761934D01*
X82294197Y-88834897D01*
X82083830Y-88942084D01*
X82000894Y-89002340D01*
X82699766Y-89701212D01*
X82657708Y-89712482D01*
X82532292Y-89784890D01*
X82429890Y-89887292D01*
X82357482Y-90012708D01*
X82346212Y-90054766D01*
X81647340Y-89355894D01*
X81587084Y-89438830D01*
X81479897Y-89649197D01*
X81406934Y-89873752D01*
X81370000Y-90106947D01*
X77870000Y-90106947D01*
X77833065Y-89873752D01*
X77760102Y-89649197D01*
X77652914Y-89438828D01*
X77592658Y-89355894D01*
X77592658Y-89355893D01*
X76893787Y-90054765D01*
X76882518Y-90012708D01*
X76810110Y-89887292D01*
X76707708Y-89784890D01*
X76582292Y-89712482D01*
X76540234Y-89701212D01*
X77239105Y-89002340D01*
X77239104Y-89002339D01*
X77156174Y-88942087D01*
X76945802Y-88834897D01*
X76721247Y-88761934D01*
X76721248Y-88761934D01*
X76488052Y-88725000D01*
X76251948Y-88725000D01*
X76018752Y-88761934D01*
X75794197Y-88834897D01*
X75583830Y-88942084D01*
X75500894Y-89002340D01*
X76199766Y-89701212D01*
X76157708Y-89712482D01*
X76032292Y-89784890D01*
X75929890Y-89887292D01*
X75857482Y-90012708D01*
X75846212Y-90054766D01*
X75147340Y-89355894D01*
X75087084Y-89438830D01*
X74979897Y-89649197D01*
X74906934Y-89873752D01*
X74870000Y-90106947D01*
X73281182Y-90106947D01*
X71745446Y-88571211D01*
X71711961Y-88509888D01*
X71716945Y-88440196D01*
X71758817Y-88384263D01*
X71824281Y-88359846D01*
X71852523Y-88361056D01*
X71943713Y-88375500D01*
X71943714Y-88375500D01*
X72156286Y-88375500D01*
X72156287Y-88375500D01*
X72366243Y-88342246D01*
X72568412Y-88276557D01*
X72757816Y-88180051D01*
X72800919Y-88148735D01*
X72929786Y-88055109D01*
X72929788Y-88055106D01*
X72929792Y-88055104D01*
X73080104Y-87904792D01*
X73080106Y-87904788D01*
X73080109Y-87904786D01*
X73201580Y-87737593D01*
X73205051Y-87732816D01*
X73301557Y-87543412D01*
X73367246Y-87341243D01*
X73400500Y-87131287D01*
X73400500Y-86918713D01*
X73367246Y-86708757D01*
X73301557Y-86506588D01*
X73205051Y-86317184D01*
X73205049Y-86317181D01*
X73205048Y-86317179D01*
X73080109Y-86145213D01*
X72991798Y-86056902D01*
X74869500Y-86056902D01*
X74869500Y-86293097D01*
X74906446Y-86526368D01*
X74979433Y-86750996D01*
X75037832Y-86865609D01*
X75086657Y-86961433D01*
X75225483Y-87152510D01*
X75392490Y-87319517D01*
X75583567Y-87458343D01*
X75657783Y-87496158D01*
X75794003Y-87565566D01*
X75794005Y-87565566D01*
X75794008Y-87565568D01*
X75914412Y-87604689D01*
X76018631Y-87638553D01*
X76251903Y-87675500D01*
X76251908Y-87675500D01*
X76488097Y-87675500D01*
X76721368Y-87638553D01*
X76945992Y-87565568D01*
X77156433Y-87458343D01*
X77347510Y-87319517D01*
X77514517Y-87152510D01*
X77653343Y-86961433D01*
X77760568Y-86750992D01*
X77833553Y-86526368D01*
X77844144Y-86459500D01*
X77870500Y-86293097D01*
X77870500Y-86056902D01*
X81369500Y-86056902D01*
X81369500Y-86293097D01*
X81406446Y-86526368D01*
X81479433Y-86750996D01*
X81537832Y-86865609D01*
X81586657Y-86961433D01*
X81725483Y-87152510D01*
X81892490Y-87319517D01*
X82083567Y-87458343D01*
X82157783Y-87496158D01*
X82294003Y-87565566D01*
X82294005Y-87565566D01*
X82294008Y-87565568D01*
X82414412Y-87604689D01*
X82518631Y-87638553D01*
X82751903Y-87675500D01*
X82751908Y-87675500D01*
X82988097Y-87675500D01*
X83221368Y-87638553D01*
X83445992Y-87565568D01*
X83656433Y-87458343D01*
X83847510Y-87319517D01*
X84014517Y-87152510D01*
X84153343Y-86961433D01*
X84260568Y-86750992D01*
X84333553Y-86526368D01*
X84344144Y-86459500D01*
X84370500Y-86293097D01*
X84370500Y-86056902D01*
X84333553Y-85823631D01*
X84293356Y-85699919D01*
X84260568Y-85599008D01*
X84260566Y-85599005D01*
X84260566Y-85599003D01*
X84197708Y-85475638D01*
X84153343Y-85388567D01*
X84014517Y-85197490D01*
X83847510Y-85030483D01*
X83656433Y-84891657D01*
X83641258Y-84883925D01*
X83445996Y-84784433D01*
X83221368Y-84711446D01*
X82988097Y-84674500D01*
X82988092Y-84674500D01*
X82751908Y-84674500D01*
X82751903Y-84674500D01*
X82518631Y-84711446D01*
X82294003Y-84784433D01*
X82083566Y-84891657D01*
X82005865Y-84948111D01*
X81892490Y-85030483D01*
X81892488Y-85030485D01*
X81892487Y-85030485D01*
X81725485Y-85197487D01*
X81725485Y-85197488D01*
X81725483Y-85197490D01*
X81669046Y-85275169D01*
X81586657Y-85388566D01*
X81479433Y-85599003D01*
X81406446Y-85823631D01*
X81369500Y-86056902D01*
X77870500Y-86056902D01*
X77833553Y-85823631D01*
X77793356Y-85699919D01*
X77760568Y-85599008D01*
X77760566Y-85599005D01*
X77760566Y-85599003D01*
X77697708Y-85475638D01*
X77653343Y-85388567D01*
X77514517Y-85197490D01*
X77347510Y-85030483D01*
X77156433Y-84891657D01*
X77141258Y-84883925D01*
X76945996Y-84784433D01*
X76721368Y-84711446D01*
X76488097Y-84674500D01*
X76488092Y-84674500D01*
X76251908Y-84674500D01*
X76251903Y-84674500D01*
X76018631Y-84711446D01*
X75794003Y-84784433D01*
X75583566Y-84891657D01*
X75505865Y-84948111D01*
X75392490Y-85030483D01*
X75392488Y-85030485D01*
X75392487Y-85030485D01*
X75225485Y-85197487D01*
X75225485Y-85197488D01*
X75225483Y-85197490D01*
X75169046Y-85275169D01*
X75086657Y-85388566D01*
X74979433Y-85599003D01*
X74906446Y-85823631D01*
X74869500Y-86056902D01*
X72991798Y-86056902D01*
X72929786Y-85994890D01*
X72757820Y-85869951D01*
X72757115Y-85869591D01*
X72749054Y-85865485D01*
X72698259Y-85817512D01*
X72681463Y-85749692D01*
X72703999Y-85683556D01*
X72749054Y-85644515D01*
X72757816Y-85640051D01*
X72814314Y-85599003D01*
X72929786Y-85515109D01*
X72929788Y-85515106D01*
X72929792Y-85515104D01*
X73080104Y-85364792D01*
X73080106Y-85364788D01*
X73080109Y-85364786D01*
X73205048Y-85192820D01*
X73205047Y-85192820D01*
X73205051Y-85192816D01*
X73301557Y-85003412D01*
X73367246Y-84801243D01*
X73400500Y-84591287D01*
X73400500Y-84378713D01*
X73367246Y-84168757D01*
X73301557Y-83966588D01*
X73205051Y-83777184D01*
X73205049Y-83777181D01*
X73205048Y-83777179D01*
X73080109Y-83605213D01*
X72966181Y-83491285D01*
X72932696Y-83429962D01*
X72937680Y-83360270D01*
X72979552Y-83304337D01*
X73010529Y-83287422D01*
X73142086Y-83238354D01*
X73142093Y-83238350D01*
X73257187Y-83152190D01*
X73257190Y-83152187D01*
X73343350Y-83037093D01*
X73343354Y-83037086D01*
X73393596Y-82902379D01*
X73393598Y-82902372D01*
X73399999Y-82842841D01*
X73400000Y-82842830D01*
X73400000Y-82195000D01*
X72483012Y-82195000D01*
X72515925Y-82137993D01*
X72550000Y-82010826D01*
X72550000Y-81879174D01*
X72515925Y-81752007D01*
X72483012Y-81695000D01*
X73400000Y-81695000D01*
X73400000Y-81556947D01*
X74870000Y-81556947D01*
X74870000Y-81793052D01*
X74906934Y-82026247D01*
X74979897Y-82250802D01*
X75087087Y-82461174D01*
X75147338Y-82544104D01*
X75147340Y-82544105D01*
X75846212Y-81845233D01*
X75857482Y-81887292D01*
X75929890Y-82012708D01*
X76032292Y-82115110D01*
X76157708Y-82187518D01*
X76199765Y-82198787D01*
X75500893Y-82897658D01*
X75583828Y-82957914D01*
X75794197Y-83065102D01*
X76018752Y-83138065D01*
X76018751Y-83138065D01*
X76251948Y-83175000D01*
X76488052Y-83175000D01*
X76721247Y-83138065D01*
X76945802Y-83065102D01*
X77156163Y-82957918D01*
X77156169Y-82957914D01*
X77239104Y-82897658D01*
X77239105Y-82897658D01*
X76540233Y-82198787D01*
X76582292Y-82187518D01*
X76707708Y-82115110D01*
X76810110Y-82012708D01*
X76882518Y-81887292D01*
X76893787Y-81845234D01*
X77592658Y-82544105D01*
X77592658Y-82544104D01*
X77652914Y-82461169D01*
X77652918Y-82461163D01*
X77760102Y-82250802D01*
X77833065Y-82026247D01*
X77870000Y-81793052D01*
X77870000Y-81556947D01*
X81370000Y-81556947D01*
X81370000Y-81793052D01*
X81406934Y-82026247D01*
X81479897Y-82250802D01*
X81587087Y-82461174D01*
X81647338Y-82544104D01*
X81647340Y-82544105D01*
X82346212Y-81845233D01*
X82357482Y-81887292D01*
X82429890Y-82012708D01*
X82532292Y-82115110D01*
X82657708Y-82187518D01*
X82699765Y-82198787D01*
X82000893Y-82897658D01*
X82083828Y-82957914D01*
X82294197Y-83065102D01*
X82518752Y-83138065D01*
X82518751Y-83138065D01*
X82751948Y-83175000D01*
X82988052Y-83175000D01*
X83221247Y-83138065D01*
X83445802Y-83065102D01*
X83656163Y-82957918D01*
X83656169Y-82957914D01*
X83739104Y-82897658D01*
X83739105Y-82897658D01*
X83040233Y-82198787D01*
X83082292Y-82187518D01*
X83207708Y-82115110D01*
X83310110Y-82012708D01*
X83382518Y-81887292D01*
X83393787Y-81845234D01*
X84092658Y-82544105D01*
X84092658Y-82544104D01*
X84152914Y-82461169D01*
X84152918Y-82461163D01*
X84260102Y-82250802D01*
X84333065Y-82026247D01*
X84370000Y-81793052D01*
X84370000Y-81556947D01*
X84333065Y-81323752D01*
X84260102Y-81099197D01*
X84152914Y-80888828D01*
X84092658Y-80805894D01*
X84092658Y-80805893D01*
X83393787Y-81504765D01*
X83382518Y-81462708D01*
X83310110Y-81337292D01*
X83207708Y-81234890D01*
X83082292Y-81162482D01*
X83040234Y-81151212D01*
X83739105Y-80452340D01*
X83739104Y-80452338D01*
X83656174Y-80392087D01*
X83445802Y-80284897D01*
X83221247Y-80211934D01*
X83221248Y-80211934D01*
X82988052Y-80175000D01*
X82751948Y-80175000D01*
X82518752Y-80211934D01*
X82294197Y-80284897D01*
X82083830Y-80392084D01*
X82000894Y-80452340D01*
X82699766Y-81151212D01*
X82657708Y-81162482D01*
X82532292Y-81234890D01*
X82429890Y-81337292D01*
X82357482Y-81462708D01*
X82346212Y-81504766D01*
X81647340Y-80805894D01*
X81587084Y-80888830D01*
X81479897Y-81099197D01*
X81406934Y-81323752D01*
X81370000Y-81556947D01*
X77870000Y-81556947D01*
X77833065Y-81323752D01*
X77760102Y-81099197D01*
X77652914Y-80888828D01*
X77592658Y-80805894D01*
X77592658Y-80805893D01*
X76893787Y-81504765D01*
X76882518Y-81462708D01*
X76810110Y-81337292D01*
X76707708Y-81234890D01*
X76582292Y-81162482D01*
X76540234Y-81151212D01*
X77239105Y-80452340D01*
X77239104Y-80452339D01*
X77156174Y-80392087D01*
X76945802Y-80284897D01*
X76721247Y-80211934D01*
X76721248Y-80211934D01*
X76488052Y-80175000D01*
X76251948Y-80175000D01*
X76018752Y-80211934D01*
X75794197Y-80284897D01*
X75583830Y-80392084D01*
X75500894Y-80452340D01*
X76199766Y-81151212D01*
X76157708Y-81162482D01*
X76032292Y-81234890D01*
X75929890Y-81337292D01*
X75857482Y-81462708D01*
X75846212Y-81504766D01*
X75147340Y-80805894D01*
X75087084Y-80888830D01*
X74979897Y-81099197D01*
X74906934Y-81323752D01*
X74870000Y-81556947D01*
X73400000Y-81556947D01*
X73400000Y-81047172D01*
X73399999Y-81047155D01*
X73393598Y-80987627D01*
X73393596Y-80987620D01*
X73343354Y-80852913D01*
X73343350Y-80852906D01*
X73257190Y-80737812D01*
X73257187Y-80737809D01*
X73142093Y-80651649D01*
X73142086Y-80651645D01*
X73045929Y-80615781D01*
X73007380Y-80601403D01*
X73007372Y-80601401D01*
X72947844Y-80595000D01*
X72300000Y-80595000D01*
X72300000Y-81511988D01*
X72242993Y-81479075D01*
X72115826Y-81445000D01*
X71984174Y-81445000D01*
X71857007Y-81479075D01*
X71800000Y-81511988D01*
X71800000Y-80595000D01*
X71152155Y-80595000D01*
X71092627Y-80601401D01*
X71092620Y-80601403D01*
X70957913Y-80651645D01*
X70957906Y-80651649D01*
X70842812Y-80737809D01*
X70842809Y-80737812D01*
X70756649Y-80852906D01*
X70756645Y-80852913D01*
X70706403Y-80987620D01*
X70706401Y-80987627D01*
X70700000Y-81047155D01*
X70700000Y-81695000D01*
X71616988Y-81695000D01*
X71584075Y-81752007D01*
X71550000Y-81879174D01*
X71550000Y-82010826D01*
X71584075Y-82137993D01*
X71616988Y-82195000D01*
X70700000Y-82195000D01*
X70700000Y-82842844D01*
X70706401Y-82902372D01*
X70706403Y-82902379D01*
X70756645Y-83037086D01*
X70756649Y-83037093D01*
X70842809Y-83152187D01*
X70842812Y-83152190D01*
X70957906Y-83238350D01*
X70957913Y-83238354D01*
X71089470Y-83287422D01*
X71145404Y-83329293D01*
X71169821Y-83394758D01*
X71154969Y-83463031D01*
X71133819Y-83491285D01*
X71019889Y-83605215D01*
X70894951Y-83777179D01*
X70798444Y-83966585D01*
X70732753Y-84168760D01*
X70702627Y-84358972D01*
X70699500Y-84378713D01*
X70699500Y-84591287D01*
X70704006Y-84619735D01*
X70731039Y-84790420D01*
X70732754Y-84801243D01*
X70780473Y-84948107D01*
X70798444Y-85003414D01*
X70894951Y-85192820D01*
X71019890Y-85364786D01*
X71170213Y-85515109D01*
X71342182Y-85640050D01*
X71350946Y-85644516D01*
X71401742Y-85692491D01*
X71418536Y-85760312D01*
X71395998Y-85826447D01*
X71350946Y-85865484D01*
X71342182Y-85869949D01*
X71170213Y-85994890D01*
X71019890Y-86145213D01*
X70894951Y-86317179D01*
X70798444Y-86506585D01*
X70732753Y-86708760D01*
X70699500Y-86918713D01*
X70699500Y-86943059D01*
X70679815Y-87010098D01*
X70627011Y-87055853D01*
X70557853Y-87065797D01*
X70494297Y-87036772D01*
X70487819Y-87030740D01*
X70410292Y-86953213D01*
X70410288Y-86953210D01*
X70279185Y-86865609D01*
X70279172Y-86865602D01*
X70133501Y-86805264D01*
X70133489Y-86805261D01*
X69978845Y-86774500D01*
X69978842Y-86774500D01*
X69821158Y-86774500D01*
X69821155Y-86774500D01*
X69666510Y-86805261D01*
X69666498Y-86805264D01*
X69520827Y-86865602D01*
X69520814Y-86865609D01*
X69389711Y-86953210D01*
X69389707Y-86953213D01*
X69278213Y-87064707D01*
X69278210Y-87064711D01*
X69190609Y-87195814D01*
X69190602Y-87195827D01*
X69130264Y-87341498D01*
X69130261Y-87341510D01*
X69099500Y-87496153D01*
X68726912Y-87496153D01*
X68777246Y-87341243D01*
X68810500Y-87131287D01*
X68810500Y-86918713D01*
X68777246Y-86708757D01*
X68711557Y-86506588D01*
X68615051Y-86317184D01*
X68615049Y-86317181D01*
X68615048Y-86317179D01*
X68490109Y-86145213D01*
X68339786Y-85994890D01*
X68167820Y-85869951D01*
X68167115Y-85869591D01*
X68159054Y-85865485D01*
X68108259Y-85817512D01*
X68091463Y-85749692D01*
X68113999Y-85683556D01*
X68159054Y-85644515D01*
X68167816Y-85640051D01*
X68224314Y-85599003D01*
X68339786Y-85515109D01*
X68339788Y-85515106D01*
X68339792Y-85515104D01*
X68490104Y-85364792D01*
X68490106Y-85364788D01*
X68490109Y-85364786D01*
X68615048Y-85192820D01*
X68615047Y-85192820D01*
X68615051Y-85192816D01*
X68711557Y-85003412D01*
X68777246Y-84801243D01*
X68810500Y-84591287D01*
X68810500Y-84378713D01*
X68777246Y-84168757D01*
X68711557Y-83966588D01*
X68615051Y-83777184D01*
X68615049Y-83777181D01*
X68615048Y-83777179D01*
X68490109Y-83605213D01*
X68376181Y-83491285D01*
X68342696Y-83429962D01*
X68347680Y-83360270D01*
X68389552Y-83304337D01*
X68420529Y-83287422D01*
X68552086Y-83238354D01*
X68552093Y-83238350D01*
X68667187Y-83152190D01*
X68667190Y-83152187D01*
X68753350Y-83037093D01*
X68753354Y-83037086D01*
X68803596Y-82902379D01*
X68803598Y-82902372D01*
X68809999Y-82842844D01*
X68810000Y-82842827D01*
X68810000Y-82195000D01*
X67893012Y-82195000D01*
X67925925Y-82137993D01*
X67960000Y-82010826D01*
X67960000Y-81879174D01*
X67925925Y-81752007D01*
X67893012Y-81695000D01*
X68810000Y-81695000D01*
X68810000Y-81047172D01*
X68809999Y-81047155D01*
X68803598Y-80987627D01*
X68803596Y-80987620D01*
X68753354Y-80852913D01*
X68753350Y-80852906D01*
X68667190Y-80737812D01*
X68667187Y-80737809D01*
X68552093Y-80651649D01*
X68552086Y-80651645D01*
X68417379Y-80601403D01*
X68417372Y-80601401D01*
X68357844Y-80595000D01*
X67710000Y-80595000D01*
X67710000Y-81511988D01*
X67652993Y-81479075D01*
X67525826Y-81445000D01*
X67394174Y-81445000D01*
X67267007Y-81479075D01*
X67210000Y-81511988D01*
X67210000Y-80595000D01*
X66562155Y-80595000D01*
X66502627Y-80601401D01*
X66502620Y-80601403D01*
X66367913Y-80651645D01*
X66367906Y-80651649D01*
X66252812Y-80737809D01*
X66252809Y-80737812D01*
X66166649Y-80852906D01*
X66166645Y-80852913D01*
X66116403Y-80987620D01*
X66116401Y-80987627D01*
X66110000Y-81047155D01*
X66110000Y-81695000D01*
X67026988Y-81695000D01*
X66994075Y-81752007D01*
X66960000Y-81879174D01*
X66960000Y-82010826D01*
X66994075Y-82137993D01*
X67026988Y-82195000D01*
X66110000Y-82195000D01*
X66110000Y-82842844D01*
X66116401Y-82902372D01*
X66116403Y-82902379D01*
X66166645Y-83037086D01*
X66166649Y-83037093D01*
X66252809Y-83152187D01*
X66252812Y-83152190D01*
X66367906Y-83238350D01*
X66367913Y-83238354D01*
X66499470Y-83287422D01*
X66555404Y-83329293D01*
X66579821Y-83394758D01*
X66564969Y-83463031D01*
X66543819Y-83491285D01*
X66429889Y-83605215D01*
X66304951Y-83777179D01*
X66208444Y-83966585D01*
X66142753Y-84168760D01*
X66112627Y-84358972D01*
X66109500Y-84378713D01*
X64220500Y-84378713D01*
X64187246Y-84168757D01*
X64121557Y-83966588D01*
X64025051Y-83777184D01*
X64025049Y-83777181D01*
X64025048Y-83777179D01*
X63900109Y-83605213D01*
X63786181Y-83491285D01*
X63752696Y-83429962D01*
X63757680Y-83360270D01*
X63799552Y-83304337D01*
X63830529Y-83287422D01*
X63962086Y-83238354D01*
X63962093Y-83238350D01*
X64077187Y-83152190D01*
X64077190Y-83152187D01*
X64163350Y-83037093D01*
X64163354Y-83037086D01*
X64213596Y-82902379D01*
X64213598Y-82902372D01*
X64219999Y-82842844D01*
X64220000Y-82842827D01*
X64220000Y-82195000D01*
X63303012Y-82195000D01*
X63335925Y-82137993D01*
X63370000Y-82010826D01*
X63370000Y-81879174D01*
X63335925Y-81752007D01*
X63303012Y-81695000D01*
X64220000Y-81695000D01*
X64220000Y-81047172D01*
X64219999Y-81047155D01*
X64213598Y-80987627D01*
X64213596Y-80987620D01*
X64163354Y-80852913D01*
X64163350Y-80852906D01*
X64077190Y-80737812D01*
X64077187Y-80737809D01*
X63962093Y-80651649D01*
X63962086Y-80651645D01*
X63827379Y-80601403D01*
X63827372Y-80601401D01*
X63767844Y-80595000D01*
X63120000Y-80595000D01*
X63120000Y-81511988D01*
X63062993Y-81479075D01*
X62935826Y-81445000D01*
X62804174Y-81445000D01*
X62677007Y-81479075D01*
X62620000Y-81511988D01*
X62620000Y-80595000D01*
X61972155Y-80595000D01*
X61912627Y-80601401D01*
X61912620Y-80601403D01*
X61777913Y-80651645D01*
X61777906Y-80651649D01*
X61662812Y-80737809D01*
X61662809Y-80737812D01*
X61576649Y-80852906D01*
X61576645Y-80852913D01*
X61526403Y-80987620D01*
X61526401Y-80987627D01*
X61520000Y-81047155D01*
X61520000Y-81695000D01*
X62436988Y-81695000D01*
X62404075Y-81752007D01*
X62370000Y-81879174D01*
X62370000Y-82010826D01*
X62404075Y-82137993D01*
X62436988Y-82195000D01*
X61520000Y-82195000D01*
X61520000Y-82842844D01*
X61526401Y-82902372D01*
X61526403Y-82902379D01*
X61576645Y-83037086D01*
X61576649Y-83037093D01*
X61662809Y-83152187D01*
X61662812Y-83152190D01*
X61777906Y-83238350D01*
X61777913Y-83238354D01*
X61909470Y-83287422D01*
X61965404Y-83329293D01*
X61989821Y-83394758D01*
X61974969Y-83463031D01*
X61953819Y-83491285D01*
X61839889Y-83605215D01*
X61714951Y-83777179D01*
X61618444Y-83966585D01*
X61552753Y-84168760D01*
X61522627Y-84358972D01*
X61519500Y-84378713D01*
X59630500Y-84378713D01*
X59597246Y-84168757D01*
X59531557Y-83966588D01*
X59435051Y-83777184D01*
X59435049Y-83777181D01*
X59435048Y-83777179D01*
X59310109Y-83605213D01*
X59196181Y-83491285D01*
X59162696Y-83429962D01*
X59167680Y-83360270D01*
X59209552Y-83304337D01*
X59240529Y-83287422D01*
X59372086Y-83238354D01*
X59372093Y-83238350D01*
X59487187Y-83152190D01*
X59487190Y-83152187D01*
X59573350Y-83037093D01*
X59573354Y-83037086D01*
X59623596Y-82902379D01*
X59623598Y-82902372D01*
X59629999Y-82842844D01*
X59630000Y-82842827D01*
X59630000Y-82195000D01*
X58713012Y-82195000D01*
X58745925Y-82137993D01*
X58780000Y-82010826D01*
X58780000Y-81879174D01*
X58745925Y-81752007D01*
X58713012Y-81695000D01*
X59630000Y-81695000D01*
X59630000Y-81047172D01*
X59629999Y-81047155D01*
X59623598Y-80987627D01*
X59623596Y-80987620D01*
X59573354Y-80852913D01*
X59573350Y-80852906D01*
X59487190Y-80737812D01*
X59487187Y-80737809D01*
X59372093Y-80651649D01*
X59372086Y-80651645D01*
X59237379Y-80601403D01*
X59237372Y-80601401D01*
X59177844Y-80595000D01*
X58530000Y-80595000D01*
X58530000Y-81511988D01*
X58472993Y-81479075D01*
X58345826Y-81445000D01*
X58214174Y-81445000D01*
X58087007Y-81479075D01*
X58030000Y-81511988D01*
X58030000Y-80595000D01*
X57382155Y-80595000D01*
X57322627Y-80601401D01*
X57322620Y-80601403D01*
X57187913Y-80651645D01*
X57187906Y-80651649D01*
X57072812Y-80737809D01*
X57072809Y-80737812D01*
X56986649Y-80852906D01*
X56986645Y-80852913D01*
X56936403Y-80987620D01*
X56936401Y-80987627D01*
X56930000Y-81047155D01*
X56930000Y-81695000D01*
X57846988Y-81695000D01*
X57814075Y-81752007D01*
X57780000Y-81879174D01*
X57780000Y-82010826D01*
X57814075Y-82137993D01*
X57846988Y-82195000D01*
X56930000Y-82195000D01*
X56930000Y-82842844D01*
X56936401Y-82902372D01*
X56936403Y-82902379D01*
X56986645Y-83037086D01*
X56986649Y-83037093D01*
X57072809Y-83152187D01*
X57072812Y-83152190D01*
X57187906Y-83238350D01*
X57187913Y-83238354D01*
X57319470Y-83287422D01*
X57375404Y-83329293D01*
X57399821Y-83394758D01*
X57384969Y-83463031D01*
X57363819Y-83491285D01*
X57249889Y-83605215D01*
X57124951Y-83777179D01*
X57028444Y-83966585D01*
X56962753Y-84168760D01*
X56932627Y-84358972D01*
X56929500Y-84378713D01*
X56270500Y-84378713D01*
X56270500Y-77159958D01*
X56270510Y-77158413D01*
X56272216Y-77021500D01*
X56290729Y-75536153D01*
X71209500Y-75536153D01*
X71209500Y-75693846D01*
X71240261Y-75848489D01*
X71240264Y-75848501D01*
X71300602Y-75994172D01*
X71300609Y-75994185D01*
X71388210Y-76125288D01*
X71388213Y-76125292D01*
X71499707Y-76236786D01*
X71499711Y-76236789D01*
X71630814Y-76324390D01*
X71630827Y-76324397D01*
X71715326Y-76359397D01*
X71776503Y-76384737D01*
X71931153Y-76415499D01*
X71931156Y-76415500D01*
X71931158Y-76415500D01*
X72088844Y-76415500D01*
X72088845Y-76415499D01*
X72243497Y-76384737D01*
X72374175Y-76330609D01*
X72389172Y-76324397D01*
X72389172Y-76324396D01*
X72389179Y-76324394D01*
X72468493Y-76271398D01*
X72535170Y-76250520D01*
X72537384Y-76250500D01*
X73220234Y-76250500D01*
X73287273Y-76270185D01*
X73289125Y-76271398D01*
X73420814Y-76359390D01*
X73420827Y-76359397D01*
X73482007Y-76384738D01*
X73566503Y-76419737D01*
X73721153Y-76450499D01*
X73721156Y-76450500D01*
X73721158Y-76450500D01*
X73878844Y-76450500D01*
X73878845Y-76450499D01*
X74033497Y-76419737D01*
X74179179Y-76359394D01*
X74310289Y-76271789D01*
X74421789Y-76160289D01*
X74509394Y-76029179D01*
X74513914Y-76018268D01*
X74569735Y-75883501D01*
X74569737Y-75883497D01*
X74600500Y-75728842D01*
X74600500Y-75571158D01*
X74600500Y-75571155D01*
X74600499Y-75571153D01*
X74593537Y-75536153D01*
X74569737Y-75416503D01*
X74555238Y-75381498D01*
X74509397Y-75270827D01*
X74509390Y-75270814D01*
X74421789Y-75139711D01*
X74421786Y-75139707D01*
X74310292Y-75028213D01*
X74310288Y-75028210D01*
X74179185Y-74940609D01*
X74179172Y-74940602D01*
X74033501Y-74880264D01*
X74033489Y-74880261D01*
X73878845Y-74849500D01*
X73878842Y-74849500D01*
X73721158Y-74849500D01*
X73721155Y-74849500D01*
X73566510Y-74880261D01*
X73566498Y-74880264D01*
X73420827Y-74940602D01*
X73420814Y-74940609D01*
X73289125Y-75028602D01*
X73222447Y-75049480D01*
X73220234Y-75049500D01*
X72627941Y-75049500D01*
X72560902Y-75029815D01*
X72540260Y-75013181D01*
X72520292Y-74993213D01*
X72520288Y-74993210D01*
X72389185Y-74905609D01*
X72389172Y-74905602D01*
X72243501Y-74845264D01*
X72243489Y-74845261D01*
X72088845Y-74814500D01*
X72088842Y-74814500D01*
X71931158Y-74814500D01*
X71931155Y-74814500D01*
X71776510Y-74845261D01*
X71776498Y-74845264D01*
X71630827Y-74905602D01*
X71630814Y-74905609D01*
X71499711Y-74993210D01*
X71499707Y-74993213D01*
X71388213Y-75104707D01*
X71388210Y-75104711D01*
X71300609Y-75235814D01*
X71300602Y-75235827D01*
X71240264Y-75381498D01*
X71240261Y-75381510D01*
X71209500Y-75536153D01*
X56290729Y-75536153D01*
X56512010Y-57782061D01*
X56532528Y-57715273D01*
X56585898Y-57670179D01*
X56655175Y-57661099D01*
X56718364Y-57690913D01*
X56755403Y-57750158D01*
X56760000Y-57783607D01*
X56760000Y-59075000D01*
X104760000Y-59075000D01*
X104760000Y-56899983D01*
X105359500Y-56899983D01*
X105359500Y-58300001D01*
X105359501Y-58300018D01*
X105370000Y-58402796D01*
X105370001Y-58402799D01*
X105425185Y-58569331D01*
X105425186Y-58569334D01*
X105517288Y-58718656D01*
X105641344Y-58842712D01*
X105790666Y-58934814D01*
X105957203Y-58989999D01*
X106059991Y-59000500D01*
X109260008Y-59000499D01*
X109362797Y-58989999D01*
X109529334Y-58934814D01*
X109678656Y-58842712D01*
X109802712Y-58718656D01*
X109894814Y-58569334D01*
X109949999Y-58402797D01*
X109960500Y-58300009D01*
X109960499Y-56899992D01*
X109949999Y-56797203D01*
X109894814Y-56630666D01*
X109802712Y-56481344D01*
X109678656Y-56357288D01*
X109529334Y-56265186D01*
X109362797Y-56210001D01*
X109362795Y-56210000D01*
X109260010Y-56199500D01*
X106059998Y-56199500D01*
X106059981Y-56199501D01*
X105957203Y-56210000D01*
X105957200Y-56210001D01*
X105790668Y-56265185D01*
X105790663Y-56265187D01*
X105641342Y-56357289D01*
X105517289Y-56481342D01*
X105425187Y-56630663D01*
X105425186Y-56630666D01*
X105370001Y-56797203D01*
X105370001Y-56797204D01*
X105370000Y-56797204D01*
X105359500Y-56899983D01*
X104760000Y-56899983D01*
X104760000Y-52270000D01*
X105382145Y-52270000D01*
X107111518Y-52270000D01*
X107100889Y-52288409D01*
X107060000Y-52441009D01*
X107060000Y-52598991D01*
X107100889Y-52751591D01*
X107111518Y-52770000D01*
X105382145Y-52770000D01*
X105394473Y-52847835D01*
X105394473Y-52847838D01*
X105462567Y-53057410D01*
X105562613Y-53253760D01*
X105692142Y-53432041D01*
X105847958Y-53587857D01*
X106026239Y-53717386D01*
X106222589Y-53817432D01*
X106432164Y-53885526D01*
X106649819Y-53920000D01*
X107410000Y-53920000D01*
X107410000Y-53068482D01*
X107428409Y-53079111D01*
X107581009Y-53120000D01*
X107738991Y-53120000D01*
X107891591Y-53079111D01*
X107910000Y-53068482D01*
X107910000Y-53920000D01*
X108670181Y-53920000D01*
X108887835Y-53885526D01*
X109097410Y-53817432D01*
X109293760Y-53717386D01*
X109472041Y-53587857D01*
X109627857Y-53432041D01*
X109757386Y-53253760D01*
X109857432Y-53057410D01*
X109925526Y-52847838D01*
X109925526Y-52847835D01*
X109937855Y-52770000D01*
X108208482Y-52770000D01*
X108219111Y-52751591D01*
X108260000Y-52598991D01*
X108260000Y-52441009D01*
X108219111Y-52288409D01*
X108208482Y-52270000D01*
X109937855Y-52270000D01*
X109925526Y-52192164D01*
X109925526Y-52192161D01*
X109857432Y-51982589D01*
X109757386Y-51786239D01*
X109627857Y-51607958D01*
X109472041Y-51452142D01*
X109293760Y-51322613D01*
X109097410Y-51222567D01*
X108887835Y-51154473D01*
X108670181Y-51120000D01*
X107910000Y-51120000D01*
X107910000Y-51971517D01*
X107891591Y-51960889D01*
X107738991Y-51920000D01*
X107581009Y-51920000D01*
X107428409Y-51960889D01*
X107410000Y-51971517D01*
X107410000Y-51120000D01*
X106649819Y-51120000D01*
X106432164Y-51154473D01*
X106222589Y-51222567D01*
X106026239Y-51322613D01*
X105847958Y-51452142D01*
X105692142Y-51607958D01*
X105562613Y-51786239D01*
X105462567Y-51982589D01*
X105394473Y-52192161D01*
X105394473Y-52192164D01*
X105382145Y-52270000D01*
X104760000Y-52270000D01*
X104760000Y-44929983D01*
X105249500Y-44929983D01*
X105249500Y-46330001D01*
X105249501Y-46330018D01*
X105260000Y-46432796D01*
X105260001Y-46432799D01*
X105315185Y-46599331D01*
X105315186Y-46599334D01*
X105407288Y-46748656D01*
X105531344Y-46872712D01*
X105680666Y-46964814D01*
X105847203Y-47019999D01*
X105949991Y-47030500D01*
X109150008Y-47030499D01*
X109252797Y-47019999D01*
X109419334Y-46964814D01*
X109568656Y-46872712D01*
X109692712Y-46748656D01*
X109784814Y-46599334D01*
X109839999Y-46432797D01*
X109850500Y-46330009D01*
X109850499Y-44929992D01*
X109839999Y-44827203D01*
X109784814Y-44660666D01*
X109692712Y-44511344D01*
X109568656Y-44387288D01*
X109419334Y-44295186D01*
X109252797Y-44240001D01*
X109252795Y-44240000D01*
X109150010Y-44229500D01*
X105949998Y-44229500D01*
X105949981Y-44229501D01*
X105847203Y-44240000D01*
X105847200Y-44240001D01*
X105680668Y-44295185D01*
X105680663Y-44295187D01*
X105531342Y-44387289D01*
X105407289Y-44511342D01*
X105315187Y-44660663D01*
X105315186Y-44660666D01*
X105260001Y-44827203D01*
X105260001Y-44827204D01*
X105260000Y-44827204D01*
X105249500Y-44929983D01*
X104760000Y-44929983D01*
X104760000Y-40300000D01*
X105272145Y-40300000D01*
X107001518Y-40300000D01*
X106990889Y-40318409D01*
X106950000Y-40471009D01*
X106950000Y-40628991D01*
X106990889Y-40781591D01*
X107001518Y-40800000D01*
X105272145Y-40800000D01*
X105284473Y-40877835D01*
X105284473Y-40877838D01*
X105352567Y-41087410D01*
X105452613Y-41283760D01*
X105582142Y-41462041D01*
X105737958Y-41617857D01*
X105916239Y-41747386D01*
X106112589Y-41847432D01*
X106322164Y-41915526D01*
X106539819Y-41950000D01*
X107300000Y-41950000D01*
X107300000Y-41098482D01*
X107318409Y-41109111D01*
X107471009Y-41150000D01*
X107628991Y-41150000D01*
X107781591Y-41109111D01*
X107800000Y-41098482D01*
X107800000Y-41950000D01*
X108560181Y-41950000D01*
X108777835Y-41915526D01*
X108987410Y-41847432D01*
X109183760Y-41747386D01*
X109362041Y-41617857D01*
X109517857Y-41462041D01*
X109647386Y-41283760D01*
X109747432Y-41087410D01*
X109815526Y-40877838D01*
X109815526Y-40877835D01*
X109827855Y-40800000D01*
X108098482Y-40800000D01*
X108109111Y-40781591D01*
X108150000Y-40628991D01*
X108150000Y-40471009D01*
X108109111Y-40318409D01*
X108098482Y-40300000D01*
X109827855Y-40300000D01*
X109815526Y-40222164D01*
X109815526Y-40222161D01*
X109747432Y-40012589D01*
X109647386Y-39816239D01*
X109517857Y-39637958D01*
X109362041Y-39482142D01*
X109183760Y-39352613D01*
X108987410Y-39252567D01*
X108777835Y-39184473D01*
X108560181Y-39150000D01*
X107800000Y-39150000D01*
X107800000Y-40001517D01*
X107781591Y-39990889D01*
X107628991Y-39950000D01*
X107471009Y-39950000D01*
X107318409Y-39990889D01*
X107300000Y-40001517D01*
X107300000Y-39150000D01*
X106539819Y-39150000D01*
X106322164Y-39184473D01*
X106112589Y-39252567D01*
X105916239Y-39352613D01*
X105737958Y-39482142D01*
X105582142Y-39637958D01*
X105452613Y-39816239D01*
X105352567Y-40012589D01*
X105284473Y-40222161D01*
X105284473Y-40222164D01*
X105272145Y-40300000D01*
X104760000Y-40300000D01*
X104760000Y-38009000D01*
X104779685Y-37941961D01*
X104832489Y-37896206D01*
X104884000Y-37885000D01*
X117545233Y-37885000D01*
X117612272Y-37904685D01*
G37*
%TD.AperFunction*%
%TD*%
M02*
