%TF.GenerationSoftware,KiCad,Pcbnew,9.0.8*%
%TF.CreationDate,2026-04-30T20:11:58+05:00*%
%TF.ProjectId,rocketpcb,726f636b-6574-4706-9362-2e6b69636164,rev?*%
%TF.SameCoordinates,Original*%
%TF.FileFunction,Soldermask,Top*%
%TF.FilePolarity,Negative*%
%FSLAX46Y46*%
G04 Gerber Fmt 4.6, Leading zero omitted, Abs format (unit mm)*
G04 Created by KiCad (PCBNEW 9.0.8) date 2026-04-30 20:11:58*
%MOMM*%
%LPD*%
G01*
G04 APERTURE LIST*
G04 Aperture macros list*
%AMRoundRect*
0 Rectangle with rounded corners*
0 $1 Rounding radius*
0 $2 $3 $4 $5 $6 $7 $8 $9 X,Y pos of 4 corners*
0 Add a 4 corners polygon primitive as box body*
4,1,4,$2,$3,$4,$5,$6,$7,$8,$9,$2,$3,0*
0 Add four circle primitives for the rounded corners*
1,1,$1+$1,$2,$3*
1,1,$1+$1,$4,$5*
1,1,$1+$1,$6,$7*
1,1,$1+$1,$8,$9*
0 Add four rect primitives between the rounded corners*
20,1,$1+$1,$2,$3,$4,$5,0*
20,1,$1+$1,$4,$5,$6,$7,0*
20,1,$1+$1,$6,$7,$8,$9,0*
20,1,$1+$1,$8,$9,$2,$3,0*%
G04 Aperture macros list end*
%ADD10R,1.700000X1.700000*%
%ADD11C,1.700000*%
%ADD12RoundRect,0.250000X1.550000X-0.650000X1.550000X0.650000X-1.550000X0.650000X-1.550000X-0.650000X0*%
%ADD13O,3.600000X1.800000*%
%ADD14RoundRect,0.075000X-0.350000X-0.075000X0.350000X-0.075000X0.350000X0.075000X-0.350000X0.075000X0*%
%ADD15RoundRect,0.075000X0.075000X-0.350000X0.075000X0.350000X-0.075000X0.350000X-0.075000X-0.350000X0*%
%ADD16RoundRect,0.250000X-0.550000X-0.550000X0.550000X-0.550000X0.550000X0.550000X-0.550000X0.550000X0*%
%ADD17C,1.600000*%
%ADD18RoundRect,0.375000X-0.625000X-0.375000X0.625000X-0.375000X0.625000X0.375000X-0.625000X0.375000X0*%
%ADD19RoundRect,0.500000X-0.500000X-1.400000X0.500000X-1.400000X0.500000X1.400000X-0.500000X1.400000X0*%
%ADD20RoundRect,0.250000X-0.325000X-0.650000X0.325000X-0.650000X0.325000X0.650000X-0.325000X0.650000X0*%
%ADD21RoundRect,0.250000X-0.262500X-0.450000X0.262500X-0.450000X0.262500X0.450000X-0.262500X0.450000X0*%
%ADD22RoundRect,0.250000X-0.250000X-0.475000X0.250000X-0.475000X0.250000X0.475000X-0.250000X0.475000X0*%
%ADD23R,0.350000X0.500000*%
%ADD24C,2.000000*%
%ADD25R,1.500000X0.900000*%
%ADD26R,0.900000X1.500000*%
%ADD27C,0.600000*%
%ADD28R,3.800000X3.800000*%
G04 APERTURE END LIST*
D10*
%TO.C,J4*%
X72050000Y-81945000D03*
D11*
X72050000Y-84485000D03*
X72050000Y-87025000D03*
%TD*%
D12*
%TO.C,J5*%
X107550000Y-45630000D03*
D13*
X107550000Y-40550000D03*
%TD*%
D10*
%TO.C,J7*%
X107830000Y-63775000D03*
D11*
X107830000Y-66315000D03*
X107830000Y-68855000D03*
X107830000Y-71395000D03*
X107830000Y-73935000D03*
X107830000Y-76475000D03*
%TD*%
D14*
%TO.C,U2*%
X111350000Y-72435000D03*
X111350000Y-72935000D03*
X111350000Y-73435000D03*
X111350000Y-73935000D03*
X111350000Y-74435000D03*
X111350000Y-74935000D03*
D15*
X112050000Y-75635000D03*
X112550000Y-75635000D03*
X113050000Y-75635000D03*
X113550000Y-75635000D03*
X114050000Y-75635000D03*
X114550000Y-75635000D03*
D14*
X115250000Y-74935000D03*
X115250000Y-74435000D03*
X115250000Y-73935000D03*
X115250000Y-73435000D03*
X115250000Y-72935000D03*
X115250000Y-72435000D03*
D15*
X114550000Y-71735000D03*
X114050000Y-71735000D03*
X113550000Y-71735000D03*
X113050000Y-71735000D03*
X112550000Y-71735000D03*
X112050000Y-71735000D03*
%TD*%
D16*
%TO.C,C5*%
X108024698Y-84425000D03*
D17*
X111524698Y-84425000D03*
%TD*%
D18*
%TO.C,U4*%
X96730000Y-81550000D03*
X96730000Y-83850000D03*
D19*
X103030000Y-83850000D03*
D18*
X96730000Y-86150000D03*
%TD*%
D20*
%TO.C,C6*%
X90655000Y-84675000D03*
X93605000Y-84675000D03*
%TD*%
%TO.C,C2*%
X90655000Y-81325000D03*
X93605000Y-81325000D03*
%TD*%
D21*
%TO.C,R1*%
X86187500Y-81125000D03*
X88012500Y-81125000D03*
%TD*%
D22*
%TO.C,C4*%
X111400000Y-69005000D03*
X113300000Y-69005000D03*
%TD*%
D21*
%TO.C,R2*%
X86187500Y-84075000D03*
X88012500Y-84075000D03*
%TD*%
D23*
%TO.C,U3*%
X106090000Y-90410000D03*
X106740000Y-90410000D03*
X107390000Y-90410000D03*
X108040000Y-90410000D03*
X108040000Y-92010000D03*
X107390000Y-92010000D03*
X106740000Y-92010000D03*
X106090000Y-92010000D03*
%TD*%
D24*
%TO.C,SW1*%
X76370000Y-81675000D03*
X82870000Y-81675000D03*
X76370000Y-86175000D03*
X82870000Y-86175000D03*
%TD*%
%TO.C,SW2*%
X76370000Y-90225000D03*
X82870000Y-90225000D03*
X76370000Y-94725000D03*
X82870000Y-94725000D03*
%TD*%
D12*
%TO.C,J6*%
X107660000Y-57600000D03*
D13*
X107660000Y-52520000D03*
%TD*%
D21*
%TO.C,R3*%
X86187500Y-87025000D03*
X88012500Y-87025000D03*
%TD*%
%TO.C,R4*%
X86187500Y-89975000D03*
X88012500Y-89975000D03*
%TD*%
D10*
%TO.C,J3*%
X67460000Y-81945000D03*
D11*
X67460000Y-84485000D03*
X67460000Y-87025000D03*
%TD*%
D21*
%TO.C,R5*%
X86187500Y-92925000D03*
X88012500Y-92925000D03*
%TD*%
D10*
%TO.C,J2*%
X62870000Y-81945000D03*
D11*
X62870000Y-84485000D03*
X62870000Y-87025000D03*
%TD*%
D10*
%TO.C,J1*%
X58280000Y-81945000D03*
D11*
X58280000Y-84485000D03*
X58280000Y-87025000D03*
%TD*%
D20*
%TO.C,C7*%
X90655000Y-88025000D03*
X93605000Y-88025000D03*
%TD*%
D22*
%TO.C,C3*%
X111400000Y-65995000D03*
X113300000Y-65995000D03*
%TD*%
D25*
%TO.C,U1*%
X72010000Y-60375000D03*
X72010000Y-61645000D03*
X72010000Y-62915000D03*
X72010000Y-64185000D03*
X72010000Y-65455000D03*
X72010000Y-66725000D03*
X72010000Y-67995000D03*
X72010000Y-69265000D03*
X72010000Y-70535000D03*
X72010000Y-71805000D03*
X72010000Y-73075000D03*
X72010000Y-74345000D03*
X72010000Y-75615000D03*
X72010000Y-76885000D03*
D26*
X75050000Y-78135000D03*
X76320000Y-78135000D03*
X77590000Y-78135000D03*
X78860000Y-78135000D03*
X80130000Y-78135000D03*
X81400000Y-78135000D03*
X82670000Y-78135000D03*
X83940000Y-78135000D03*
X85210000Y-78135000D03*
X86480000Y-78135000D03*
D25*
X89510000Y-76885000D03*
X89510000Y-75615000D03*
X89510000Y-74345000D03*
X89510000Y-73075000D03*
X89510000Y-71805000D03*
X89510000Y-70535000D03*
X89510000Y-69265000D03*
X89510000Y-67995000D03*
X89510000Y-66725000D03*
X89510000Y-65455000D03*
X89510000Y-64185000D03*
X89510000Y-62915000D03*
X89510000Y-61645000D03*
X89510000Y-60375000D03*
D27*
X77860000Y-67395000D03*
X77860000Y-68795000D03*
X78560000Y-66695000D03*
X78560000Y-68095000D03*
X78560000Y-69495000D03*
X79235000Y-67395000D03*
X79235000Y-68795000D03*
D28*
X79260000Y-68095000D03*
D27*
X79960000Y-66695000D03*
X79960000Y-68095000D03*
X79960000Y-69495000D03*
X80660000Y-67395000D03*
X80660000Y-68795000D03*
%TD*%
D22*
%TO.C,C1*%
X111400000Y-62985000D03*
X113300000Y-62985000D03*
%TD*%
M02*
