%TF.GenerationSoftware,KiCad,Pcbnew,9.0.8*%
%TF.CreationDate,2026-04-30T20:11:58+05:00*%
%TF.ProjectId,rocketpcb,726f636b-6574-4706-9362-2e6b69636164,rev?*%
%TF.SameCoordinates,Original*%
%TF.FileFunction,Profile,NP*%
%FSLAX46Y46*%
G04 Gerber Fmt 4.6, Leading zero omitted, Abs format (unit mm)*
G04 Created by KiCad (PCBNEW 9.0.8) date 2026-04-30 20:11:58*
%MOMM*%
%LPD*%
G01*
G04 APERTURE LIST*
%TA.AperFunction,Profile*%
%ADD10C,0.050000*%
%TD*%
%ADD11C,0.150000*%
G04 APERTURE END LIST*
D10*
X55770000Y-36970000D02*
X118290000Y-36970000D01*
X118290000Y-98990000D01*
X55770000Y-98990000D01*
X55770000Y-36970000D01*
D11*
X125334819Y-70389880D02*
X125334819Y-70580356D01*
X125334819Y-70580356D02*
X125382438Y-70675594D01*
X125382438Y-70675594D02*
X125430057Y-70723213D01*
X125430057Y-70723213D02*
X125572914Y-70818451D01*
X125572914Y-70818451D02*
X125763390Y-70866070D01*
X125763390Y-70866070D02*
X126144342Y-70866070D01*
X126144342Y-70866070D02*
X126239580Y-70818451D01*
X126239580Y-70818451D02*
X126287200Y-70770832D01*
X126287200Y-70770832D02*
X126334819Y-70675594D01*
X126334819Y-70675594D02*
X126334819Y-70485118D01*
X126334819Y-70485118D02*
X126287200Y-70389880D01*
X126287200Y-70389880D02*
X126239580Y-70342261D01*
X126239580Y-70342261D02*
X126144342Y-70294642D01*
X126144342Y-70294642D02*
X125906247Y-70294642D01*
X125906247Y-70294642D02*
X125811009Y-70342261D01*
X125811009Y-70342261D02*
X125763390Y-70389880D01*
X125763390Y-70389880D02*
X125715771Y-70485118D01*
X125715771Y-70485118D02*
X125715771Y-70675594D01*
X125715771Y-70675594D02*
X125763390Y-70770832D01*
X125763390Y-70770832D02*
X125811009Y-70818451D01*
X125811009Y-70818451D02*
X125906247Y-70866070D01*
X126334819Y-69342261D02*
X126334819Y-69913689D01*
X126334819Y-69627975D02*
X125334819Y-69627975D01*
X125334819Y-69627975D02*
X125477676Y-69723213D01*
X125477676Y-69723213D02*
X125572914Y-69818451D01*
X125572914Y-69818451D02*
X125620533Y-69913689D01*
X126287200Y-68866070D02*
X126334819Y-68866070D01*
X126334819Y-68866070D02*
X126430057Y-68913689D01*
X126430057Y-68913689D02*
X126477676Y-68961308D01*
X126334819Y-67913690D02*
X126334819Y-68485118D01*
X126334819Y-68199404D02*
X125334819Y-68199404D01*
X125334819Y-68199404D02*
X125477676Y-68294642D01*
X125477676Y-68294642D02*
X125572914Y-68389880D01*
X125572914Y-68389880D02*
X125620533Y-68485118D01*
X125334819Y-67294642D02*
X125334819Y-67199404D01*
X125334819Y-67199404D02*
X125382438Y-67104166D01*
X125382438Y-67104166D02*
X125430057Y-67056547D01*
X125430057Y-67056547D02*
X125525295Y-67008928D01*
X125525295Y-67008928D02*
X125715771Y-66961309D01*
X125715771Y-66961309D02*
X125953866Y-66961309D01*
X125953866Y-66961309D02*
X126144342Y-67008928D01*
X126144342Y-67008928D02*
X126239580Y-67056547D01*
X126239580Y-67056547D02*
X126287200Y-67104166D01*
X126287200Y-67104166D02*
X126334819Y-67199404D01*
X126334819Y-67199404D02*
X126334819Y-67294642D01*
X126334819Y-67294642D02*
X126287200Y-67389880D01*
X126287200Y-67389880D02*
X126239580Y-67437499D01*
X126239580Y-67437499D02*
X126144342Y-67485118D01*
X126144342Y-67485118D02*
X125953866Y-67532737D01*
X125953866Y-67532737D02*
X125715771Y-67532737D01*
X125715771Y-67532737D02*
X125525295Y-67485118D01*
X125525295Y-67485118D02*
X125430057Y-67437499D01*
X125430057Y-67437499D02*
X125382438Y-67389880D01*
X125382438Y-67389880D02*
X125334819Y-67294642D01*
X125334819Y-66056547D02*
X125334819Y-66532737D01*
X125334819Y-66532737D02*
X125811009Y-66580356D01*
X125811009Y-66580356D02*
X125763390Y-66532737D01*
X125763390Y-66532737D02*
X125715771Y-66437499D01*
X125715771Y-66437499D02*
X125715771Y-66199404D01*
X125715771Y-66199404D02*
X125763390Y-66104166D01*
X125763390Y-66104166D02*
X125811009Y-66056547D01*
X125811009Y-66056547D02*
X125906247Y-66008928D01*
X125906247Y-66008928D02*
X126144342Y-66008928D01*
X126144342Y-66008928D02*
X126239580Y-66056547D01*
X126239580Y-66056547D02*
X126287200Y-66104166D01*
X126287200Y-66104166D02*
X126334819Y-66199404D01*
X126334819Y-66199404D02*
X126334819Y-66437499D01*
X126334819Y-66437499D02*
X126287200Y-66532737D01*
X126287200Y-66532737D02*
X126239580Y-66580356D01*
D10*
X118790000Y-98990000D02*
X127616420Y-98990000D01*
X127616420Y-37885000D02*
X118660000Y-37885000D01*
X127030000Y-98990000D02*
X127030000Y-37885000D01*
X127030000Y-98990000D02*
X126443579Y-97863496D01*
X127030000Y-98990000D02*
X127616421Y-97863496D01*
X127030000Y-37885000D02*
X127616421Y-39011504D01*
X127030000Y-37885000D02*
X126443579Y-39011504D01*
D11*
X85578809Y-26194819D02*
X85388333Y-26194819D01*
X85388333Y-26194819D02*
X85293095Y-26242438D01*
X85293095Y-26242438D02*
X85245476Y-26290057D01*
X85245476Y-26290057D02*
X85150238Y-26432914D01*
X85150238Y-26432914D02*
X85102619Y-26623390D01*
X85102619Y-26623390D02*
X85102619Y-27004342D01*
X85102619Y-27004342D02*
X85150238Y-27099580D01*
X85150238Y-27099580D02*
X85197857Y-27147200D01*
X85197857Y-27147200D02*
X85293095Y-27194819D01*
X85293095Y-27194819D02*
X85483571Y-27194819D01*
X85483571Y-27194819D02*
X85578809Y-27147200D01*
X85578809Y-27147200D02*
X85626428Y-27099580D01*
X85626428Y-27099580D02*
X85674047Y-27004342D01*
X85674047Y-27004342D02*
X85674047Y-26766247D01*
X85674047Y-26766247D02*
X85626428Y-26671009D01*
X85626428Y-26671009D02*
X85578809Y-26623390D01*
X85578809Y-26623390D02*
X85483571Y-26575771D01*
X85483571Y-26575771D02*
X85293095Y-26575771D01*
X85293095Y-26575771D02*
X85197857Y-26623390D01*
X85197857Y-26623390D02*
X85150238Y-26671009D01*
X85150238Y-26671009D02*
X85102619Y-26766247D01*
X86055000Y-26290057D02*
X86102619Y-26242438D01*
X86102619Y-26242438D02*
X86197857Y-26194819D01*
X86197857Y-26194819D02*
X86435952Y-26194819D01*
X86435952Y-26194819D02*
X86531190Y-26242438D01*
X86531190Y-26242438D02*
X86578809Y-26290057D01*
X86578809Y-26290057D02*
X86626428Y-26385295D01*
X86626428Y-26385295D02*
X86626428Y-26480533D01*
X86626428Y-26480533D02*
X86578809Y-26623390D01*
X86578809Y-26623390D02*
X86007381Y-27194819D01*
X86007381Y-27194819D02*
X86626428Y-27194819D01*
X87102619Y-27147200D02*
X87102619Y-27194819D01*
X87102619Y-27194819D02*
X87055000Y-27290057D01*
X87055000Y-27290057D02*
X87007381Y-27337676D01*
X87483571Y-26290057D02*
X87531190Y-26242438D01*
X87531190Y-26242438D02*
X87626428Y-26194819D01*
X87626428Y-26194819D02*
X87864523Y-26194819D01*
X87864523Y-26194819D02*
X87959761Y-26242438D01*
X87959761Y-26242438D02*
X88007380Y-26290057D01*
X88007380Y-26290057D02*
X88054999Y-26385295D01*
X88054999Y-26385295D02*
X88054999Y-26480533D01*
X88054999Y-26480533D02*
X88007380Y-26623390D01*
X88007380Y-26623390D02*
X87435952Y-27194819D01*
X87435952Y-27194819D02*
X88054999Y-27194819D01*
X89007380Y-27194819D02*
X88435952Y-27194819D01*
X88721666Y-27194819D02*
X88721666Y-26194819D01*
X88721666Y-26194819D02*
X88626428Y-26337676D01*
X88626428Y-26337676D02*
X88531190Y-26432914D01*
X88531190Y-26432914D02*
X88435952Y-26480533D01*
D10*
X118160000Y-37385000D02*
X118160000Y-27303580D01*
X55950000Y-27303580D02*
X55950000Y-37135000D01*
X118160000Y-27890000D02*
X55950000Y-27890000D01*
X118160000Y-27890000D02*
X117033496Y-28476421D01*
X118160000Y-27890000D02*
X117033496Y-27303579D01*
X55950000Y-27890000D02*
X57076504Y-27303579D01*
X55950000Y-27890000D02*
X57076504Y-28476421D01*
M02*
