M48
; DRILL file {KiCad 9.0.8} date 2026-04-30T20:11:53+0500
; FORMAT={-:-/ absolute / metric / decimal}
; #@! TF.CreationDate,2026-04-30T20:11:53+05:00
; #@! TF.GenerationSoftware,Kicad,Pcbnew,9.0.8
; #@! TF.FileFunction,Plated,1,2,PTH
FMAT,2
METRIC
; #@! TA.AperFunction,Plated,PTH,ComponentDrill
T1C0.200
; #@! TA.AperFunction,Plated,PTH,ViaDrill
T2C0.300
; #@! TA.AperFunction,Plated,PTH,ComponentDrill
T3C0.800
; #@! TA.AperFunction,Plated,PTH,ComponentDrill
T4C1.000
; #@! TA.AperFunction,Plated,PTH,ComponentDrill
T5C1.100
; #@! TA.AperFunction,Plated,PTH,ComponentDrill
T6C1.200
%
G90
G05
T1
X77.86Y-67.395
X77.86Y-68.795
X78.56Y-66.695
X78.56Y-68.095
X78.56Y-69.495
X79.235Y-67.395
X79.235Y-68.795
X79.96Y-66.695
X79.96Y-68.095
X79.96Y-69.495
X80.66Y-67.395
X80.66Y-68.795
T2
X69.9Y-87.575
X72.01Y-75.615
X73.8Y-75.65
X74.45Y-63.976
X80.66Y-66.695
X84.623Y-79.48
X85.732Y-92.712
X86.188Y-87.025
X86.204Y-83.116
X86.366Y-92.825
X86.469Y-88.625
X86.65Y-79.48
X87.08Y-80.24
X87.801Y-81.359
X88.27Y-80.84
X89.06Y-60.695
X89.51Y-66.725
X89.59Y-91.925
X90.655Y-84.675
X90.655Y-88.025
X91.24Y-82.96
X91.62Y-81.36
X91.75Y-90.375
X93.704Y-84.576
X93.717Y-91.087
X94.079Y-83.29
X94.52Y-82.0
X95.2Y-63.585
X96.73Y-83.85
X96.73Y-86.15
X98.504Y-82.0
X99.759Y-84.869
X103.854Y-76.252
X104.96Y-66.68
X104.966Y-86.635
X105.29Y-92.69
X105.52Y-69.02
X106.14Y-88.93
X107.515Y-89.803
X111.278Y-87.348
X113.69Y-77.42
X114.76Y-79.15
X115.176Y-72.252
X115.176Y-72.252
X115.875Y-71.255
X116.23Y-72.48
T3
X108.025Y-84.425
X111.525Y-84.425
T4
X58.28Y-81.945
X58.28Y-84.485
X58.28Y-87.025
X62.87Y-81.945
X62.87Y-84.485
X62.87Y-87.025
X67.46Y-81.945
X67.46Y-84.485
X67.46Y-87.025
X72.05Y-81.945
X72.05Y-84.485
X72.05Y-87.025
X107.83Y-63.775
X107.83Y-66.315
X107.83Y-68.855
X107.83Y-71.395
X107.83Y-73.935
X107.83Y-76.475
T5
X76.37Y-81.675
X76.37Y-86.175
X76.37Y-90.225
X76.37Y-94.725
X82.87Y-81.675
X82.87Y-86.175
X82.87Y-90.225
X82.87Y-94.725
T6
X107.55Y-40.55
X107.55Y-45.63
X107.66Y-52.52
X107.66Y-57.6
M30
